<svg width="31" height="29" viewBox="0 0 31 29" fill="none" xmlns="http://www.w3.org/2000/svg">
<path fill-rule="evenodd" clip-rule="evenodd" d="M15.5567 0C7.14027 0 0.316406 6.49046 0.316406 14.4957C0.316406 22.501 7.14027 28.9915 15.5567 28.9915C23.9732 28.9915 30.7971 22.501 30.7971 14.4957C30.7971 6.49046 23.9732 0 15.5567 0ZM15.5577 2.41595C22.5606 2.41595 28.258 7.83494 28.258 14.4957C28.258 21.1565 22.5606 26.5755 15.5577 26.5755C8.55477 26.5755 2.85742 21.1565 2.85742 14.4957C2.85742 7.83494 8.55477 2.41595 15.5577 2.41595ZM10.4766 12.0798H13.0166V10.0359C13.0166 8.20458 14.0301 7.24786 16.3136 7.24786H19.3668V10.2678H17.5354C16.9486 10.2678 16.8267 10.4961 16.8267 11.0735V12.0798H19.3668L19.1382 14.4957H16.8267V21.7436H13.0166V14.4957H10.4766V12.0798Z" fill="#979797"/>
</svg>
