<svg width="30" height="29" viewBox="0 0 30 29" fill="none" xmlns="http://www.w3.org/2000/svg">
<path d="M10.006 6.16931C10.7047 5.76171 11.4617 5.42689 12.2332 5.19397V3.33064C12.2332 1.72934 13.4997 0.419191 15.101 0.375519C16.7896 0.419191 18.0561 1.72934 18.0561 3.33064V5.19397C18.8277 5.44145 19.5846 5.76171 20.2834 6.16931L17.9542 9.25545H12.3351L10.006 6.16931ZM25.3348 14.9765C25.3348 15.7043 25.262 16.3594 25.131 17.0145L21.448 15.879L19.7157 10.551L22.0448 7.47947C22.6708 8.06176 23.224 8.71683 23.7043 9.4447C24.8544 9.34279 25.9607 9.51748 26.9506 10.0124C28.45 10.784 29.469 12.2542 29.7019 13.9283L25.3348 14.4524V14.9765ZM4.95458 14.9765V14.467L0.587402 13.9283C0.820319 12.2542 1.83933 10.784 3.33873 10.0124C4.32267 9.51544 5.44006 9.34707 6.52677 9.53204C7.00716 8.78962 7.56033 8.10543 8.21541 7.50858L10.5737 10.5365L8.84137 15.879L5.15838 17.0145C5.02737 16.3594 4.95458 15.7043 4.95458 14.9765ZM12.5826 11.439H17.7067L19.2935 16.3303L15.1447 19.3436L10.9958 16.3303L12.5826 11.439ZM9.51101 17.9607L14.0529 21.2506V25.1083C13.2231 25.021 12.4225 24.8317 11.68 24.5551L9.8895 28.5729C9.12916 28.2357 8.46333 27.7169 7.95058 27.062C7.43783 26.4071 7.09386 25.6362 6.94893 24.8172C6.74513 23.7108 6.91981 22.6045 7.41476 21.6146C6.75968 20.8576 6.22106 20.0133 5.81346 19.0816L9.51101 17.9607M20.7783 17.9607L24.4759 19.0816C24.0683 20.0133 23.5297 20.8576 22.8746 21.6146C23.3695 22.6045 23.5442 23.7108 23.355 24.8172C23.2044 25.6361 22.8566 26.406 22.3418 27.0604C21.8269 27.7148 21.1604 28.2339 20.3998 28.5729L18.6239 24.5551C17.8523 24.8317 17.0808 25.0792 16.2365 25.1665V21.2506L20.7783 17.9607V17.9607Z" fill="#3A3A3A"/>
</svg>
