<svg width="41" height="21" viewBox="0 0 41 21" fill="none" xmlns="http://www.w3.org/2000/svg">
<path d="M40.5522 20.3068C39.7501 20.3068 38.9424 20.1176 38.2454 19.7959C37.508 19.4432 36.7015 19.2586 35.884 19.2553C35.0629 19.2575 34.2525 19.4422 33.5115 19.7959C32.8056 20.1167 32.0244 20.3068 31.2054 20.3068C30.4121 20.3037 29.6289 20.1294 28.9091 19.7959C28.1685 19.4424 27.3587 19.2578 26.5381 19.2553C25.6999 19.2553 24.8906 19.4558 24.1759 19.7959C23.4521 20.1292 22.6652 20.3034 21.8683 20.3068C21.0746 20.3046 20.2909 20.1303 19.5711 19.7959C18.8311 19.4424 18.0218 19.2578 17.2017 19.2553C16.3547 19.2553 15.5558 19.4558 14.8388 19.7959C14.1159 20.1295 13.3297 20.3038 12.5335 20.3068C11.7414 20.3046 10.9592 20.1303 10.2412 19.7959C9.51607 19.4558 8.71558 19.2553 7.86938 19.2553C7.02317 19.2553 6.45128 19.4558 5.72538 19.7959C5.02837 20.1176 4.45808 20.3068 3.65599 20.3068V16.7953C4.45808 16.7953 5.02837 16.606 5.72538 16.2844C6.45047 15.9531 7.13707 15.7526 7.98327 15.7526C8.82948 15.7526 9.57222 15.9531 10.2981 16.2844C10.9959 16.6052 11.7435 16.7953 12.5624 16.7953C13.3814 16.7953 14.1474 16.606 14.854 16.2844C15.5911 15.9376 16.3951 15.7561 17.2097 15.7526C18.0535 15.7526 18.8588 15.9531 19.5751 16.2844C20.2721 16.6052 21.0518 16.7953 21.8699 16.7953C22.688 16.7953 23.4685 16.606 24.1759 16.2844C24.9153 15.9383 25.7209 15.7569 26.5373 15.7526C27.3827 15.7526 28.1912 15.9531 28.9083 16.2844C29.6045 16.6052 30.3961 16.7953 31.2046 16.7953C32.001 16.7922 32.7875 16.618 33.5107 16.2844C34.2537 15.9376 35.0632 15.7561 35.8832 15.7526C36.7198 15.7526 37.5291 15.9531 38.2446 16.2844C38.9416 16.6052 39.7493 16.7953 40.5514 16.7953V20.3068H40.5522ZM31.1581 5.63979L37.9486 6.17959L37.4361 2.64798L32.4511 2.28945C31.1036 2.22287 31.2977 3.59605 31.2977 3.59605L31.1581 5.63979V5.63979ZM18.5661 4.83529C19.8133 4.83529 20.8175 3.81342 20.8175 2.54531C20.8175 1.2764 19.8141 0.255341 18.5661 0.255341C17.3204 0.255341 16.3186 1.27721 16.3186 2.54531C16.3186 3.81342 17.3204 4.83529 18.5661 4.83529ZM4.67063 13.6623C4.95448 13.5767 5.23123 13.4692 5.49839 13.3407C6.22428 13.0006 7.02397 12.8009 7.87018 12.8009C8.71638 12.8009 9.51687 13.0006 10.242 13.3407C10.9398 13.6623 11.7154 13.8516 12.5343 13.8516C13.3308 13.8488 14.1173 13.6746 14.8404 13.3407C15.5781 12.9872 16.3853 12.8028 17.2033 12.8009C18.0471 12.8009 18.8564 13.0006 19.5727 13.3407C20.2925 13.6751 21.0762 13.8494 21.8699 13.8516C22.688 13.8516 23.4693 13.6631 24.1767 13.3407C24.9144 12.988 25.7212 12.8036 26.5389 12.8009C27.3843 12.8009 28.1928 13.0006 28.9099 13.3407C29.6297 13.6742 30.4129 13.8484 31.2062 13.8516C32.0027 13.8489 32.7892 13.6746 33.5123 13.3407C34.2534 12.9872 35.0638 12.8028 35.8848 12.8009C36.7214 12.8009 37.5307 13.0006 38.2462 13.3407C38.9662 13.6752 39.7503 13.8495 40.5442 13.8516L39.7806 7.58967L11.5566 5.185L15.8165 0.811992L13.9468 0.641949L9.69253 5.02458L0.448419 4.24816C0.392273 7.45652 3.90704 12.7912 4.67063 13.6623V13.6623Z" fill="#3A3A3A"/>
</svg>
