<svg width="34" height="29" viewBox="0 0 34 29" fill="none" xmlns="http://www.w3.org/2000/svg">
<path d="M0.520996 0.375519L5.7987 5.93939L7.82678 4.06151L5.99063 0.392437L0.520996 0.375519ZM24.3119 15.9597C25.309 16.2431 26.3823 15.6608 26.6649 14.614C26.9386 13.5863 26.3566 12.5057 25.3499 12.2138L24.569 11.9918L23.5553 15.7292L24.3119 15.9597V15.9597ZM23.6973 11.7514L17.3817 9.91651C16.9659 9.80513 16.5467 10.0631 16.4296 10.491L15.8393 12.6685C15.7236 13.0971 15.9474 13.5341 16.3714 13.6631L22.6919 15.4811L23.6973 11.7514ZM24.6937 17.9412C24.1961 17.4478 23.5855 17.0883 22.9171 16.8951L15.2587 14.6838L10.554 6.07685C10.3045 5.63135 9.90544 5.27959 9.38993 5.13368C8.35892 4.83409 7.28633 5.45935 7.00433 6.52236C6.86791 7.00952 6.92152 7.53146 7.15399 7.97941L13.0394 18.6264C13.0394 18.6264 13.5216 19.4237 14.7348 19.836L25.4344 22.9313L30.3968 28.1258C30.5631 28.3056 30.78 28.4423 31.0371 28.5206C31.7854 28.7348 32.5663 28.271 32.7831 27.5076C32.9252 26.9683 32.7589 26.4023 32.384 26.0505L24.6937 17.9412V17.9412ZM30.4058 20.0933L31.5179 21.5934L33.7795 19.0465L31.8685 17.9483C32.0501 16.5681 31.2186 15.2315 29.8889 14.846C28.4263 14.4251 26.9047 15.2999 26.4987 16.8091C26.0815 18.3268 26.9386 19.8861 28.4013 20.3069C29.0997 20.512 29.8065 20.4007 30.4058 20.0933Z" fill="#3A3A3A"/>
</svg>
