<svg width="35" height="29" viewBox="0 0 35 29" fill="none" xmlns="http://www.w3.org/2000/svg">
<path d="M31.7564 0.375519C26.64 1.17808 19.4322 3.54089 13.9756 7.52836C14.0046 7.54284 14.0335 7.56455 14.0625 7.57902C14.4098 7.80336 14.6993 8.10731 14.8947 8.47638C19.671 5.03891 25.9814 2.80636 30.7433 1.88005V25.0269H32.0459V1.29387C32.0242 0.917554 31.8215 0.422558 31.7564 0.375519ZM6.79671 0.787292C5.44633 0.787292 4.25443 2.11886 4.25443 3.88826C4.25443 5.66127 5.44633 6.99284 6.79671 6.99284C8.14999 6.99284 9.33683 5.66127 9.33683 3.88826C9.33683 2.11886 8.14999 0.787292 6.79671 0.787292ZM4.74364 7.6152C3.53871 10.6691 3.03503 13.8606 2.68839 16.7987C4.45851 16.7336 6.17942 16.625 7.82434 16.473C7.69408 15.4382 7.61447 14.4105 7.57105 13.3829C6.99211 12.956 6.39869 12.4566 5.806 11.9283L6.67369 10.9586C7.4625 11.6606 8.2296 12.2902 8.90986 12.7316C9.58288 13.1803 10.1835 13.4191 10.4947 13.4408H10.502C10.4658 13.4408 10.6539 13.4119 10.9144 13.2382C11.1677 13.0573 11.4934 12.7678 11.8263 12.406C12.4921 11.6895 13.2157 10.6764 13.7585 9.67045C13.8526 9.49677 13.8526 9.35203 13.7802 9.17111C13.7151 8.99019 13.5559 8.7948 13.3532 8.67177C13.1579 8.54151 12.9335 8.48362 12.7454 8.50533C12.5572 8.52704 12.3763 8.59941 12.1736 8.87441L10.2342 11.4724L7.19474 8.26651C7.06448 8.28822 6.93421 8.29546 6.79671 8.29546C6.03251 8.29546 5.33199 8.04217 4.74364 7.6152V7.6152ZM18.7519 16.104C14.1855 17.1388 7.59276 18.0868 0.348735 18.1375V24.9546H10.3862C14.2796 22.9644 17.3552 19.1868 18.7519 16.104V16.104ZM3.60529 26.1124C2.65148 26.1124 1.48708 26.4236 0.504326 26.7203C0.426169 26.742 0.35163 26.7638 0.276367 26.7927V28.1532C0.4638 28.0953 0.66643 28.0302 0.881363 27.9651C1.81636 27.6828 2.96773 27.4151 3.60529 27.4151C4.24285 27.4151 4.9289 27.6611 5.68876 27.9506C6.44935 28.2401 7.28158 28.5729 8.23684 28.5729C9.19209 28.5729 10.0243 28.2401 10.7842 27.9506C11.544 27.6611 12.2315 27.4151 12.8684 27.4151C13.5052 27.4151 14.1927 27.6611 14.9526 27.9506C15.7124 28.2401 16.5447 28.5729 17.4999 28.5729C18.4552 28.5729 19.2874 28.2401 20.0473 27.9506C20.8071 27.6611 21.4946 27.4151 22.1315 27.4151C22.7683 27.4151 23.4558 27.6611 24.2157 27.9506C24.9755 28.2401 25.8078 28.5729 26.763 28.5729C27.7183 28.5729 28.5505 28.2401 29.3104 27.9506C30.0702 27.6611 30.7577 27.4151 31.3946 27.4151C32.0314 27.4151 33.1821 27.6828 34.1156 27.9651C34.3327 28.0302 34.5353 28.0953 34.7235 28.1532V26.7927C34.6511 26.7638 34.5788 26.742 34.4991 26.7203C33.5149 26.4236 32.3498 26.1124 31.3946 26.1124C30.4393 26.1124 29.6071 26.4453 28.8472 26.7348C28.0873 27.0243 27.3999 27.2703 26.763 27.2703C26.1262 27.2703 25.4387 27.0243 24.6788 26.7348C23.919 26.4453 23.0867 26.1124 22.1315 26.1124C21.1762 26.1124 20.344 26.4453 19.5841 26.7348C18.8243 27.0243 18.1368 27.2703 17.4999 27.2703C16.8631 27.2703 16.1756 27.0243 15.4157 26.7348C14.6559 26.4453 13.8236 26.1124 12.8684 26.1124C11.9131 26.1124 11.0809 26.4453 10.321 26.7348C9.56117 27.0243 8.87367 27.2703 8.23684 27.2703C7.6 27.2703 6.9125 27.0243 6.15264 26.7348C5.39278 26.4453 4.5591 26.1124 3.60529 26.1124Z" fill="#3A3A3A"/>
</svg>
