<svg width="338" height="338" viewBox="0 0 338 338" fill="none" xmlns="http://www.w3.org/2000/svg">
<g opacity="0.2">
<circle cx="169.089" cy="169.089" r="131.261" stroke="#3282AD" stroke-width="2" stroke-dasharray="5 5"/>
<circle cx="169" cy="169" r="168" stroke="#3282AD" stroke-width="2" stroke-dasharray="5 5"/>
<circle cx="168.866" cy="168.866" r="93.3913" stroke="#3282AD" stroke-width="2" stroke-dasharray="5 5"/>
<path d="M231.133 162.072C231.321 163.677 231.448 165.3 231.511 166.94L230.512 166.979C230.543 167.777 230.558 168.579 230.558 169.385C230.558 170.19 230.543 170.992 230.512 171.79L231.511 171.829C231.448 173.469 231.321 175.092 231.133 176.697L230.14 176.58C229.952 178.182 229.703 179.764 229.394 181.325L230.375 181.519C230.057 183.125 229.677 184.709 229.239 186.268L228.276 185.997C227.84 187.545 227.345 189.068 226.793 190.564L227.731 190.91C227.165 192.443 226.541 193.948 225.861 195.421L224.953 195.002C224.28 196.46 223.551 197.887 222.769 199.28L223.641 199.769C222.843 201.191 221.99 202.579 221.086 203.929L220.255 203.373C219.363 204.706 218.42 206.002 217.428 207.258L218.213 207.877C217.204 209.156 216.145 210.394 215.04 211.588L214.306 210.909C213.219 212.085 212.085 213.219 210.909 214.307L211.588 215.041C210.394 216.145 209.156 217.204 207.877 218.213L207.257 217.428C206.001 218.42 204.706 219.363 203.373 220.255L203.929 221.086C202.579 221.99 201.191 222.843 199.769 223.641L199.28 222.769C197.886 223.551 196.459 224.28 195.002 224.953L195.421 225.861C193.947 226.541 192.443 227.166 190.91 227.731L190.564 226.793C189.068 227.345 187.545 227.84 185.997 228.276L186.268 229.239C184.709 229.678 183.125 230.057 181.518 230.375L181.324 229.394C179.764 229.703 178.181 229.952 176.58 230.14L176.697 231.133C175.092 231.321 173.469 231.448 171.829 231.511L171.79 230.512C170.992 230.543 170.19 230.559 169.384 230.559C168.579 230.559 167.777 230.543 166.978 230.512L166.94 231.511C165.3 231.448 163.677 231.321 162.072 231.133L162.188 230.14C160.587 229.952 159.005 229.703 157.444 229.394L157.25 230.375C155.644 230.057 154.06 229.678 152.501 229.239L152.772 228.276C151.224 227.84 149.701 227.345 148.205 226.793L147.859 227.731C146.326 227.166 144.821 226.541 143.348 225.861L143.767 224.953C142.309 224.28 140.882 223.551 139.489 222.769L139 223.641C137.578 222.843 136.19 221.99 134.84 221.086L135.396 220.255C134.063 219.363 132.767 218.42 131.511 217.428L130.892 218.213C129.613 217.204 128.375 216.145 127.181 215.041L127.86 214.307C126.683 213.219 125.55 212.085 124.462 210.909L123.728 211.588C122.624 210.394 121.565 209.156 120.556 207.877L121.341 207.258C120.349 206.002 119.406 204.706 118.514 203.373L117.683 203.929C116.779 202.579 115.926 201.191 115.128 199.769L116 199.28C115.218 197.887 114.489 196.46 113.816 195.002L112.908 195.421C112.228 193.948 111.603 192.443 111.038 190.91L111.976 190.564C111.424 189.068 110.929 187.545 110.493 185.997L109.53 186.268C109.091 184.709 108.712 183.125 108.394 181.519L109.375 181.325C109.066 179.764 108.817 178.182 108.629 176.58L107.636 176.697C107.448 175.092 107.321 173.469 107.258 171.829L108.257 171.791C108.226 170.992 108.21 170.19 108.21 169.385C108.21 168.579 108.226 167.777 108.257 166.979L107.258 166.94C107.321 165.3 107.448 163.677 107.636 162.072L108.629 162.189C108.817 160.588 109.066 159.005 109.375 157.445L108.394 157.251C108.712 155.644 109.091 154.06 109.53 152.501L110.493 152.772C110.929 151.224 111.424 149.701 111.976 148.205L111.038 147.859C111.603 146.326 112.228 144.822 112.908 143.348L113.816 143.767C114.489 142.31 115.218 140.883 116 139.489L115.128 139C115.926 137.578 116.779 136.19 117.683 134.84L118.514 135.396C119.406 134.063 120.349 132.768 121.341 131.512L120.556 130.892C121.565 129.613 122.624 128.375 123.728 127.181L124.462 127.86C125.55 126.684 126.683 125.55 127.86 124.463L127.181 123.729C128.375 122.624 129.613 121.565 130.892 120.556L131.511 121.341C132.767 120.349 134.063 119.406 135.396 118.514L134.84 117.683C136.19 116.779 137.578 115.926 139 115.128L139.489 116C140.882 115.218 142.309 114.489 143.767 113.816L143.348 112.908C144.821 112.228 146.326 111.604 147.859 111.038L148.205 111.976C149.701 111.424 151.224 110.929 152.772 110.493L152.501 109.53C154.06 109.092 155.644 108.712 157.25 108.394L157.444 109.375C159.005 109.066 160.587 108.817 162.188 108.629L162.072 107.636C163.677 107.448 165.3 107.321 166.94 107.258L166.978 108.257C167.777 108.226 168.579 108.211 169.384 108.211C170.19 108.211 170.992 108.226 171.79 108.257L171.829 107.258C173.469 107.321 175.092 107.448 176.697 107.636L176.58 108.629C178.181 108.817 179.764 109.066 181.324 109.375L181.518 108.394C183.125 108.712 184.709 109.092 186.268 109.53L185.997 110.493C187.545 110.929 189.068 111.424 190.564 111.976L190.91 111.038C192.443 111.604 193.947 112.228 195.421 112.908L195.002 113.816C196.459 114.489 197.886 115.218 199.28 116L199.769 115.128C201.191 115.926 202.579 116.779 203.929 117.683L203.373 118.514C204.706 119.406 206.001 120.349 207.257 121.341L207.877 120.556C209.156 121.565 210.394 122.624 211.588 123.729L210.909 124.463C212.085 125.55 213.219 126.684 214.306 127.86L215.04 127.181C216.145 128.375 217.204 129.613 218.213 130.892L217.428 131.512C218.419 132.768 219.363 134.063 220.255 135.396L221.086 134.84C221.99 136.19 222.843 137.578 223.641 139L222.769 139.489C223.551 140.883 224.28 142.31 224.953 143.767L225.861 143.348C226.541 144.822 227.165 146.326 227.731 147.859L226.793 148.205C227.345 149.701 227.84 151.224 228.276 152.772L229.239 152.501C229.677 154.06 230.057 155.644 230.375 157.251L229.394 157.445C229.703 159.005 229.952 160.588 230.14 162.189L231.133 162.072Z" stroke="#3282AD" stroke-width="2" stroke-dasharray="5 5"/>
</g>
</svg>
