<svg width="15" height="16" viewBox="0 0 15 16" fill="none" xmlns="http://www.w3.org/2000/svg">
<path d="M0 15.5V4.48684H4.875V2.67105L7.10526 0.5L9.33553 2.67105V7.76316H14.2105V15.5H0ZM1.18421 14.3158H3.27632V12.2237H1.18421V14.3158ZM1.18421 11.0395H3.27632V8.94737H1.18421V11.0395ZM1.18421 7.76316H3.27632V5.67105H1.18421V7.76316ZM6.05921 14.3158H8.15132V12.2237H6.05921V14.3158ZM6.05921 11.0395H8.15132V8.94737H6.05921V11.0395ZM6.05921 7.76316H8.15132V5.67105H6.05921V7.76316ZM6.05921 4.48684H8.15132V2.39474H6.05921V4.48684ZM10.9342 14.3158H13.0263V12.2237H10.9342V14.3158ZM10.9342 11.0395H13.0263V8.94737H10.9342V11.0395Z" fill="#9A9A9A"/>
</svg>
