<svg width="14" height="16" viewBox="0 0 14 16" fill="none" xmlns="http://www.w3.org/2000/svg">
<path d="M1.125 15.5C0.825 15.5 0.5625 15.3875 0.3375 15.1625C0.1125 14.9375 0 14.675 0 14.375V2.75C0 2.45 0.1125 2.1875 0.3375 1.9625C0.5625 1.7375 0.825 1.625 1.125 1.625H2.34375V0.5H3.5625V1.625H9.9375V0.5H11.1562V1.625H12.375C12.675 1.625 12.9375 1.7375 13.1625 1.9625C13.3875 2.1875 13.5 2.45 13.5 2.75V14.375C13.5 14.675 13.3875 14.9375 13.1625 15.1625C12.9375 15.3875 12.675 15.5 12.375 15.5H1.125ZM1.125 14.375H12.375V6.3125H1.125V14.375ZM1.125 5.1875H12.375V2.75H1.125V5.1875ZM1.125 5.1875V2.75V5.1875ZM6.75 9.5C6.5375 9.5 6.35938 9.42812 6.21563 9.28437C6.07188 9.14062 6 8.9625 6 8.75C6 8.5375 6.07188 8.35938 6.21563 8.21563C6.35938 8.07188 6.5375 8 6.75 8C6.9625 8 7.14062 8.07188 7.28437 8.21563C7.42812 8.35938 7.5 8.5375 7.5 8.75C7.5 8.9625 7.42812 9.14062 7.28437 9.28437C7.14062 9.42812 6.9625 9.5 6.75 9.5ZM3.75 9.5C3.5375 9.5 3.35938 9.42812 3.21562 9.28437C3.07187 9.14062 3 8.9625 3 8.75C3 8.5375 3.07187 8.35938 3.21562 8.21563C3.35938 8.07188 3.5375 8 3.75 8C3.9625 8 4.14062 8.07188 4.28437 8.21563C4.42812 8.35938 4.5 8.5375 4.5 8.75C4.5 8.9625 4.42812 9.14062 4.28437 9.28437C4.14062 9.42812 3.9625 9.5 3.75 9.5ZM9.75 9.5C9.5375 9.5 9.35938 9.42812 9.21563 9.28437C9.07188 9.14062 9 8.9625 9 8.75C9 8.5375 9.07188 8.35938 9.21563 8.21563C9.35938 8.07188 9.5375 8 9.75 8C9.9625 8 10.1406 8.07188 10.2844 8.21563C10.4281 8.35938 10.5 8.5375 10.5 8.75C10.5 8.9625 10.4281 9.14062 10.2844 9.28437C10.1406 9.42812 9.9625 9.5 9.75 9.5ZM6.75 12.5C6.5375 12.5 6.35938 12.4281 6.21563 12.2844C6.07188 12.1406 6 11.9625 6 11.75C6 11.5375 6.07188 11.3594 6.21563 11.2156C6.35938 11.0719 6.5375 11 6.75 11C6.9625 11 7.14062 11.0719 7.28437 11.2156C7.42812 11.3594 7.5 11.5375 7.5 11.75C7.5 11.9625 7.42812 12.1406 7.28437 12.2844C7.14062 12.4281 6.9625 12.5 6.75 12.5ZM3.75 12.5C3.5375 12.5 3.35938 12.4281 3.21562 12.2844C3.07187 12.1406 3 11.9625 3 11.75C3 11.5375 3.07187 11.3594 3.21562 11.2156C3.35938 11.0719 3.5375 11 3.75 11C3.9625 11 4.14062 11.0719 4.28437 11.2156C4.42812 11.3594 4.5 11.5375 4.5 11.75C4.5 11.9625 4.42812 12.1406 4.28437 12.2844C4.14062 12.4281 3.9625 12.5 3.75 12.5ZM9.75 12.5C9.5375 12.5 9.35938 12.4281 9.21563 12.2844C9.07188 12.1406 9 11.9625 9 11.75C9 11.5375 9.07188 11.3594 9.21563 11.2156C9.35938 11.0719 9.5375 11 9.75 11C9.9625 11 10.1406 11.0719 10.2844 11.2156C10.4281 11.3594 10.5 11.5375 10.5 11.75C10.5 11.9625 10.4281 12.1406 10.2844 12.2844C10.1406 12.4281 9.9625 12.5 9.75 12.5Z" fill="#9A9A9A"/>
</svg>
