<svg width="23" height="25" viewBox="0 0 23 25" fill="none" xmlns="http://www.w3.org/2000/svg">
<path d="M21.1733 2.26562L15.6441 2.26564V0.75893C15.6441 0.34124 15.3351 0.00292969 14.9536 0.00292969C14.5721 0.00292969 14.263 0.34124 14.263 0.75893V2.26526H8.7387V0.75893C8.7387 0.34124 8.42969 0.00292969 8.04816 0.00292969C7.66664 0.00292969 7.35762 0.34124 7.35762 0.75893V2.26526H1.83812C1.07541 2.26526 0.457031 2.94226 0.457031 3.77726V22.6773C0.457031 23.5123 1.07541 24.1893 1.83812 24.1893H21.1733C21.936 24.1893 22.5544 23.5123 22.5544 22.6773V3.77726C22.5544 2.94261 21.936 2.26562 21.1733 2.26562ZM21.1733 22.6773H1.83812V3.77726H7.35762V4.53893C7.35762 4.9566 7.66664 5.29493 8.04816 5.29493C8.42969 5.29493 8.7387 4.9566 8.7387 4.53893V3.77764H14.263V4.53931C14.263 4.957 14.5721 5.29531 14.9536 5.29531C15.3351 5.29531 15.6441 4.957 15.6441 4.53931V3.77764H21.1733V22.6773ZM16.3395 12.0936H17.7206C18.1018 12.0936 18.4111 11.7549 18.4111 11.3376V9.82562C18.4111 9.40831 18.1018 9.06962 17.7206 9.06962H16.3395C15.9583 9.06962 15.649 9.40831 15.649 9.82562V11.3376C15.649 11.7549 15.9583 12.0936 16.3395 12.0936ZM16.3395 18.1412H17.7206C18.1018 18.1412 18.4111 17.8029 18.4111 17.3852V15.8732C18.4111 15.4559 18.1018 15.1172 17.7206 15.1172H16.3395C15.9583 15.1172 15.649 15.4559 15.649 15.8732V17.3852C15.649 17.8033 15.9583 18.1412 16.3395 18.1412ZM12.1962 15.1172H10.8152C10.434 15.1172 10.1246 15.4559 10.1246 15.8732V17.3852C10.1246 17.8029 10.434 18.1412 10.8152 18.1412H12.1962C12.5774 18.1412 12.8868 17.8029 12.8868 17.3852V15.8732C12.8868 15.4563 12.5774 15.1172 12.1962 15.1172ZM12.1962 9.06962H10.8152C10.434 9.06962 10.1246 9.40831 10.1246 9.82562V11.3376C10.1246 11.7549 10.434 12.0936 10.8152 12.0936H12.1962C12.5774 12.0936 12.8868 11.7549 12.8868 11.3376V9.82562C12.8868 9.40793 12.5774 9.06962 12.1962 9.06962ZM6.67191 9.06962H5.29083C4.90965 9.06962 4.60028 9.40831 4.60028 9.82562V11.3376C4.60028 11.7549 4.90965 12.0936 5.29083 12.0936H6.67191C7.05309 12.0936 7.36245 11.7549 7.36245 11.3376V9.82562C7.36245 9.40793 7.05309 9.06962 6.67191 9.06962ZM6.67191 15.1172H5.29083C4.90965 15.1172 4.60028 15.4559 4.60028 15.8732V17.3852C4.60028 17.8029 4.90965 18.1412 5.29083 18.1412H6.67191C7.05309 18.1412 7.36245 17.8029 7.36245 17.3852V15.8732C7.36245 15.4563 7.05309 15.1172 6.67191 15.1172Z" fill="#3282AD"/>
</svg>
