<svg width="30" height="30" viewBox="0 0 30 30" fill="none" xmlns="http://www.w3.org/2000/svg">
<path d="M15.0017 22.5L9.29237 14.4375C8.35785 13.3341 7.75603 11.988 7.55701 10.5558C7.35799 9.12359 7.56995 7.66433 8.16822 6.34796C8.76648 5.03158 9.72642 3.91227 10.9362 3.12037C12.1461 2.32847 13.556 1.89658 15.0017 1.875C17.0059 1.8948 18.9205 2.70806 20.3262 4.13664C21.732 5.56522 22.5142 7.49268 22.5017 9.49688C22.5025 11.2453 21.9073 12.9417 20.8142 14.3063L15.0017 22.5ZM15.0017 3.75C13.4941 3.76731 12.055 4.38223 11.0003 5.45972C9.94567 6.53722 9.36174 7.98921 9.37674 9.49688C9.38302 10.873 9.8781 12.202 10.7736 13.2469L15.0017 19.2375L19.3424 13.125C20.1675 12.0951 20.6201 10.8165 20.6267 9.49688C20.6417 7.98921 20.0578 6.53722 19.0032 5.45972C17.9485 4.38223 16.5094 3.76731 15.0017 3.75Z" fill="#3282AD"/>
<path d="M15 10.3125C16.0355 10.3125 16.875 9.47303 16.875 8.4375C16.875 7.40197 16.0355 6.5625 15 6.5625C13.9645 6.5625 13.125 7.40197 13.125 8.4375C13.125 9.47303 13.9645 10.3125 15 10.3125Z" fill="#3282AD"/>
<path d="M26.25 11.25H24.375V13.125H26.25V26.25H3.75V13.125H5.625V11.25H3.75C3.25272 11.25 2.77581 11.4475 2.42417 11.7992C2.07254 12.1508 1.875 12.6277 1.875 13.125V26.25C1.875 26.7473 2.07254 27.2242 2.42417 27.5758C2.77581 27.9275 3.25272 28.125 3.75 28.125H26.25C26.7473 28.125 27.2242 27.9275 27.5758 27.5758C27.9275 27.2242 28.125 26.7473 28.125 26.25V13.125C28.125 12.6277 27.9275 12.1508 27.5758 11.7992C27.2242 11.4475 26.7473 11.25 26.25 11.25Z" fill="#3282AD"/>
</svg>
