<svg width="629" height="532" viewBox="0 0 629 532" fill="none" xmlns="http://www.w3.org/2000/svg">
<rect width="629" height="532" rx="8" fill="#F7FDFF"/>
<path d="M0 151C0 146.582 3.58172 143 8 143H183C187.418 143 191 146.582 191 151V532H8C3.58173 532 0 528.418 0 524V151Z" fill="#D2F4FF"/>
<path d="M0 200C0 195.582 3.58172 192 8 192H183C187.418 192 191 195.582 191 200V532H8C3.58173 532 0 528.418 0 524V200Z" fill="#3282AD"/>
<path d="M219 238C219 233.582 222.582 230 227 230H401C405.418 230 409 233.582 409 238V532H227C222.582 532 219 528.418 219 524V238Z" fill="#D2F4FF"/>
<path d="M219 287C219 282.582 222.582 279 227 279H401C405.418 279 409 282.582 409 287V532H227C222.582 532 219 528.418 219 524V287Z" fill="#3282AD"/>
<path d="M437 310C437 305.582 440.582 302 445 302H620C624.418 302 628 305.582 628 310V532H445C440.582 532 437 528.418 437 524V310Z" fill="#D2F4FF"/>
<path d="M437 345C437 340.582 440.582 337 445 337H620C624.418 337 628 340.582 628 345V532H445C440.582 532 437 528.418 437 524V345Z" fill="#3282AD"/>
<path d="M35.688 110.816H39.592V112H34.232V100.848H35.688V110.816ZM44.9623 112.144C44.1409 112.144 43.3943 111.957 42.7223 111.584C42.0609 111.211 41.5383 110.683 41.1543 110C40.7809 109.307 40.5943 108.507 40.5943 107.6C40.5943 106.704 40.7863 105.915 41.1703 105.232C41.5649 104.539 42.0983 104.011 42.7703 103.648C43.4423 103.275 44.1943 103.088 45.0263 103.088C45.8583 103.088 46.6103 103.275 47.2823 103.648C47.9543 104.011 48.4823 104.533 48.8663 105.216C49.2609 105.899 49.4583 106.693 49.4583 107.6C49.4583 108.507 49.2556 109.307 48.8503 110C48.4556 110.683 47.9169 111.211 47.2343 111.584C46.5516 111.957 45.7943 112.144 44.9623 112.144ZM44.9623 110.864C45.4849 110.864 45.9756 110.741 46.4343 110.496C46.8929 110.251 47.2609 109.883 47.5383 109.392C47.8263 108.901 47.9703 108.304 47.9703 107.6C47.9703 106.896 47.8316 106.299 47.5543 105.808C47.2769 105.317 46.9143 104.955 46.4663 104.72C46.0183 104.475 45.5329 104.352 45.0103 104.352C44.4769 104.352 43.9863 104.475 43.5383 104.72C43.1009 104.955 42.7489 105.317 42.4823 105.808C42.2156 106.299 42.0823 106.896 42.0823 107.6C42.0823 108.315 42.2103 108.917 42.4663 109.408C42.7329 109.899 43.0849 110.267 43.5223 110.512C43.9596 110.747 44.4396 110.864 44.9623 110.864ZM52.8286 104.656C53.0846 104.155 53.4473 103.765 53.9166 103.488C54.3966 103.211 54.978 103.072 55.6606 103.072V104.576H55.2766C53.6446 104.576 52.8286 105.461 52.8286 107.232V112H51.3726V103.232H52.8286V104.656ZM65.3414 107.28C65.3414 107.557 65.3254 107.851 65.2934 108.16H58.2854C58.3387 109.024 58.632 109.701 59.1654 110.192C59.7094 110.672 60.3654 110.912 61.1334 110.912C61.7627 110.912 62.2854 110.768 62.7014 110.48C63.128 110.181 63.4267 109.787 63.5974 109.296H65.1654C64.9307 110.139 64.4614 110.827 63.7574 111.36C63.0534 111.883 62.1787 112.144 61.1334 112.144C60.3014 112.144 59.5547 111.957 58.8934 111.584C58.2427 111.211 57.7307 110.683 57.3574 110C56.984 109.307 56.7974 108.507 56.7974 107.6C56.7974 106.693 56.9787 105.899 57.3414 105.216C57.704 104.533 58.2107 104.011 58.8614 103.648C59.5227 103.275 60.28 103.088 61.1334 103.088C61.9654 103.088 62.7014 103.269 63.3414 103.632C63.9814 103.995 64.472 104.496 64.8134 105.136C65.1654 105.765 65.3414 106.48 65.3414 107.28ZM63.8374 106.976C63.8374 106.421 63.7147 105.947 63.4694 105.552C63.224 105.147 62.888 104.843 62.4614 104.64C62.0454 104.427 61.5814 104.32 61.0694 104.32C60.3334 104.32 59.704 104.555 59.1814 105.024C58.6694 105.493 58.376 106.144 58.3014 106.976H63.8374ZM77.8073 103.072C78.4899 103.072 79.0979 103.216 79.6313 103.504C80.1646 103.781 80.5859 104.203 80.8953 104.768C81.2046 105.333 81.3593 106.021 81.3593 106.832V112H79.9193V107.04C79.9193 106.165 79.7006 105.499 79.2633 105.04C78.8366 104.571 78.2553 104.336 77.5193 104.336C76.7619 104.336 76.1593 104.581 75.7113 105.072C75.2633 105.552 75.0393 106.251 75.0393 107.168V112H73.5993V107.04C73.5993 106.165 73.3806 105.499 72.9433 105.04C72.5166 104.571 71.9353 104.336 71.1993 104.336C70.4419 104.336 69.8393 104.581 69.3913 105.072C68.9433 105.552 68.7193 106.251 68.7193 107.168V112H67.2633V103.232H68.7193V104.496C69.0073 104.037 69.3913 103.685 69.8713 103.44C70.3619 103.195 70.9006 103.072 71.4873 103.072C72.2233 103.072 72.8739 103.237 73.4393 103.568C74.0046 103.899 74.4259 104.384 74.7033 105.024C74.9486 104.405 75.3539 103.925 75.9193 103.584C76.4846 103.243 77.1139 103.072 77.8073 103.072ZM88.7653 101.808C88.4879 101.808 88.2533 101.712 88.0613 101.52C87.8693 101.328 87.7733 101.093 87.7733 100.816C87.7733 100.539 87.8693 100.304 88.0613 100.112C88.2533 99.92 88.4879 99.824 88.7653 99.824C89.0319 99.824 89.2559 99.92 89.4373 100.112C89.6293 100.304 89.7253 100.539 89.7253 100.816C89.7253 101.093 89.6293 101.328 89.4373 101.52C89.2559 101.712 89.0319 101.808 88.7653 101.808ZM89.4693 103.232V112H88.0133V103.232H89.4693ZM93.4068 104.848C93.6948 104.347 94.1214 103.931 94.6868 103.6C95.2628 103.259 95.9294 103.088 96.6868 103.088C97.4654 103.088 98.1694 103.275 98.7987 103.648C99.4387 104.021 99.9401 104.549 100.303 105.232C100.665 105.904 100.847 106.688 100.847 107.584C100.847 108.469 100.665 109.259 100.303 109.952C99.9401 110.645 99.4387 111.184 98.7987 111.568C98.1694 111.952 97.4654 112.144 96.6868 112.144C95.9401 112.144 95.2788 111.979 94.7028 111.648C94.1374 111.307 93.7054 110.885 93.4068 110.384V116.16H91.9508V103.232H93.4068V104.848ZM99.3588 107.584C99.3588 106.923 99.2254 106.347 98.9588 105.856C98.6921 105.365 98.3294 104.992 97.8708 104.736C97.4228 104.48 96.9268 104.352 96.3828 104.352C95.8494 104.352 95.3534 104.485 94.8948 104.752C94.4468 105.008 94.0841 105.387 93.8068 105.888C93.5401 106.379 93.4068 106.949 93.4068 107.6C93.4068 108.261 93.5401 108.843 93.8068 109.344C94.0841 109.835 94.4468 110.213 94.8948 110.48C95.3534 110.736 95.8494 110.864 96.3828 110.864C96.9268 110.864 97.4228 110.736 97.8708 110.48C98.3294 110.213 98.6921 109.835 98.9588 109.344C99.2254 108.843 99.3588 108.256 99.3588 107.584ZM105.867 112.144C105.195 112.144 104.593 112.032 104.059 111.808C103.526 111.573 103.105 111.253 102.795 110.848C102.486 110.432 102.315 109.957 102.283 109.424H103.787C103.83 109.861 104.033 110.219 104.395 110.496C104.769 110.773 105.254 110.912 105.851 110.912C106.406 110.912 106.843 110.789 107.163 110.544C107.483 110.299 107.643 109.989 107.643 109.616C107.643 109.232 107.473 108.949 107.131 108.768C106.79 108.576 106.262 108.389 105.547 108.208C104.897 108.037 104.363 107.867 103.947 107.696C103.542 107.515 103.19 107.253 102.891 106.912C102.603 106.56 102.459 106.101 102.459 105.536C102.459 105.088 102.593 104.677 102.859 104.304C103.126 103.931 103.505 103.637 103.995 103.424C104.486 103.2 105.046 103.088 105.675 103.088C106.646 103.088 107.43 103.333 108.027 103.824C108.625 104.315 108.945 104.987 108.987 105.84H107.531C107.499 105.381 107.313 105.013 106.971 104.736C106.641 104.459 106.193 104.32 105.627 104.32C105.105 104.32 104.689 104.432 104.379 104.656C104.07 104.88 103.915 105.173 103.915 105.536C103.915 105.824 104.006 106.064 104.187 106.256C104.379 106.437 104.614 106.587 104.891 106.704C105.179 106.811 105.574 106.933 106.075 107.072C106.705 107.243 107.217 107.413 107.611 107.584C108.006 107.744 108.342 107.989 108.619 108.32C108.907 108.651 109.057 109.083 109.067 109.616C109.067 110.096 108.934 110.528 108.667 110.912C108.401 111.296 108.022 111.6 107.531 111.824C107.051 112.037 106.497 112.144 105.867 112.144ZM118.899 103.232V112H117.443V110.704C117.165 111.152 116.776 111.504 116.275 111.76C115.784 112.005 115.24 112.128 114.643 112.128C113.96 112.128 113.347 111.989 112.803 111.712C112.259 111.424 111.827 110.997 111.507 110.432C111.197 109.867 111.043 109.179 111.043 108.368V103.232H112.483V108.176C112.483 109.04 112.701 109.707 113.139 110.176C113.576 110.635 114.173 110.864 114.931 110.864C115.709 110.864 116.323 110.624 116.771 110.144C117.219 109.664 117.443 108.965 117.443 108.048V103.232H118.899ZM131.901 103.072C132.584 103.072 133.192 103.216 133.725 103.504C134.258 103.781 134.68 104.203 134.989 104.768C135.298 105.333 135.453 106.021 135.453 106.832V112H134.013V107.04C134.013 106.165 133.794 105.499 133.357 105.04C132.93 104.571 132.349 104.336 131.613 104.336C130.856 104.336 130.253 104.581 129.805 105.072C129.357 105.552 129.133 106.251 129.133 107.168V112H127.693V107.04C127.693 106.165 127.474 105.499 127.037 105.04C126.61 104.571 126.029 104.336 125.293 104.336C124.536 104.336 123.933 104.581 123.485 105.072C123.037 105.552 122.813 106.251 122.813 107.168V112H121.357V103.232H122.813V104.496C123.101 104.037 123.485 103.685 123.965 103.44C124.456 103.195 124.994 103.072 125.581 103.072C126.317 103.072 126.968 103.237 127.533 103.568C128.098 103.899 128.52 104.384 128.797 105.024C129.042 104.405 129.448 103.925 130.013 103.584C130.578 103.243 131.208 103.072 131.901 103.072Z" fill="#5A5A5A"/>
<path d="M253.688 198.816H257.592V200H252.232V188.848H253.688V198.816ZM262.962 200.144C262.141 200.144 261.394 199.957 260.722 199.584C260.061 199.211 259.538 198.683 259.154 198C258.781 197.307 258.594 196.507 258.594 195.6C258.594 194.704 258.786 193.915 259.17 193.232C259.565 192.539 260.098 192.011 260.77 191.648C261.442 191.275 262.194 191.088 263.026 191.088C263.858 191.088 264.61 191.275 265.282 191.648C265.954 192.011 266.482 192.533 266.866 193.216C267.261 193.899 267.458 194.693 267.458 195.6C267.458 196.507 267.256 197.307 266.85 198C266.456 198.683 265.917 199.211 265.234 199.584C264.552 199.957 263.794 200.144 262.962 200.144ZM262.962 198.864C263.485 198.864 263.976 198.741 264.434 198.496C264.893 198.251 265.261 197.883 265.538 197.392C265.826 196.901 265.97 196.304 265.97 195.6C265.97 194.896 265.832 194.299 265.554 193.808C265.277 193.317 264.914 192.955 264.466 192.72C264.018 192.475 263.533 192.352 263.01 192.352C262.477 192.352 261.986 192.475 261.538 192.72C261.101 192.955 260.749 193.317 260.482 193.808C260.216 194.299 260.082 194.896 260.082 195.6C260.082 196.315 260.21 196.917 260.466 197.408C260.733 197.899 261.085 198.267 261.522 198.512C261.96 198.747 262.44 198.864 262.962 198.864ZM270.829 192.656C271.085 192.155 271.447 191.765 271.917 191.488C272.397 191.211 272.978 191.072 273.661 191.072V192.576H273.277C271.645 192.576 270.829 193.461 270.829 195.232V200H269.373V191.232H270.829V192.656ZM283.341 195.28C283.341 195.557 283.325 195.851 283.293 196.16H276.285C276.339 197.024 276.632 197.701 277.165 198.192C277.709 198.672 278.365 198.912 279.133 198.912C279.763 198.912 280.285 198.768 280.701 198.48C281.128 198.181 281.427 197.787 281.597 197.296H283.165C282.931 198.139 282.461 198.827 281.757 199.36C281.053 199.883 280.179 200.144 279.133 200.144C278.301 200.144 277.555 199.957 276.893 199.584C276.243 199.211 275.731 198.683 275.357 198C274.984 197.307 274.797 196.507 274.797 195.6C274.797 194.693 274.979 193.899 275.341 193.216C275.704 192.533 276.211 192.011 276.861 191.648C277.523 191.275 278.28 191.088 279.133 191.088C279.965 191.088 280.701 191.269 281.341 191.632C281.981 191.995 282.472 192.496 282.813 193.136C283.165 193.765 283.341 194.48 283.341 195.28ZM281.837 194.976C281.837 194.421 281.715 193.947 281.469 193.552C281.224 193.147 280.888 192.843 280.461 192.64C280.045 192.427 279.581 192.32 279.069 192.32C278.333 192.32 277.704 192.555 277.181 193.024C276.669 193.493 276.376 194.144 276.301 194.976H281.837ZM295.807 191.072C296.49 191.072 297.098 191.216 297.631 191.504C298.165 191.781 298.586 192.203 298.895 192.768C299.205 193.333 299.359 194.021 299.359 194.832V200H297.919V195.04C297.919 194.165 297.701 193.499 297.263 193.04C296.837 192.571 296.255 192.336 295.519 192.336C294.762 192.336 294.159 192.581 293.711 193.072C293.263 193.552 293.039 194.251 293.039 195.168V200H291.599V195.04C291.599 194.165 291.381 193.499 290.943 193.04C290.517 192.571 289.935 192.336 289.199 192.336C288.442 192.336 287.839 192.581 287.391 193.072C286.943 193.552 286.719 194.251 286.719 195.168V200H285.263V191.232H286.719V192.496C287.007 192.037 287.391 191.685 287.871 191.44C288.362 191.195 288.901 191.072 289.487 191.072C290.223 191.072 290.874 191.237 291.439 191.568C292.005 191.899 292.426 192.384 292.703 193.024C292.949 192.405 293.354 191.925 293.919 191.584C294.485 191.243 295.114 191.072 295.807 191.072ZM306.765 189.808C306.488 189.808 306.253 189.712 306.061 189.52C305.869 189.328 305.773 189.093 305.773 188.816C305.773 188.539 305.869 188.304 306.061 188.112C306.253 187.92 306.488 187.824 306.765 187.824C307.032 187.824 307.256 187.92 307.437 188.112C307.629 188.304 307.725 188.539 307.725 188.816C307.725 189.093 307.629 189.328 307.437 189.52C307.256 189.712 307.032 189.808 306.765 189.808ZM307.469 191.232V200H306.013V191.232H307.469ZM311.407 192.848C311.695 192.347 312.121 191.931 312.687 191.6C313.263 191.259 313.929 191.088 314.687 191.088C315.465 191.088 316.169 191.275 316.799 191.648C317.439 192.021 317.94 192.549 318.303 193.232C318.665 193.904 318.847 194.688 318.847 195.584C318.847 196.469 318.665 197.259 318.303 197.952C317.94 198.645 317.439 199.184 316.799 199.568C316.169 199.952 315.465 200.144 314.687 200.144C313.94 200.144 313.279 199.979 312.703 199.648C312.137 199.307 311.705 198.885 311.407 198.384V204.16H309.951V191.232H311.407V192.848ZM317.359 195.584C317.359 194.923 317.225 194.347 316.959 193.856C316.692 193.365 316.329 192.992 315.871 192.736C315.423 192.48 314.927 192.352 314.383 192.352C313.849 192.352 313.353 192.485 312.895 192.752C312.447 193.008 312.084 193.387 311.807 193.888C311.54 194.379 311.407 194.949 311.407 195.6C311.407 196.261 311.54 196.843 311.807 197.344C312.084 197.835 312.447 198.213 312.895 198.48C313.353 198.736 313.849 198.864 314.383 198.864C314.927 198.864 315.423 198.736 315.871 198.48C316.329 198.213 316.692 197.835 316.959 197.344C317.225 196.843 317.359 196.256 317.359 195.584ZM323.867 200.144C323.195 200.144 322.593 200.032 322.059 199.808C321.526 199.573 321.105 199.253 320.795 198.848C320.486 198.432 320.315 197.957 320.283 197.424H321.787C321.83 197.861 322.033 198.219 322.395 198.496C322.769 198.773 323.254 198.912 323.851 198.912C324.406 198.912 324.843 198.789 325.163 198.544C325.483 198.299 325.643 197.989 325.643 197.616C325.643 197.232 325.473 196.949 325.131 196.768C324.79 196.576 324.262 196.389 323.547 196.208C322.897 196.037 322.363 195.867 321.947 195.696C321.542 195.515 321.19 195.253 320.891 194.912C320.603 194.56 320.459 194.101 320.459 193.536C320.459 193.088 320.593 192.677 320.859 192.304C321.126 191.931 321.505 191.637 321.995 191.424C322.486 191.2 323.046 191.088 323.675 191.088C324.646 191.088 325.43 191.333 326.027 191.824C326.625 192.315 326.945 192.987 326.987 193.84H325.531C325.499 193.381 325.313 193.013 324.971 192.736C324.641 192.459 324.193 192.32 323.627 192.32C323.105 192.32 322.689 192.432 322.379 192.656C322.07 192.88 321.915 193.173 321.915 193.536C321.915 193.824 322.006 194.064 322.187 194.256C322.379 194.437 322.614 194.587 322.891 194.704C323.179 194.811 323.574 194.933 324.075 195.072C324.705 195.243 325.217 195.413 325.611 195.584C326.006 195.744 326.342 195.989 326.619 196.32C326.907 196.651 327.057 197.083 327.067 197.616C327.067 198.096 326.934 198.528 326.667 198.912C326.401 199.296 326.022 199.6 325.531 199.824C325.051 200.037 324.497 200.144 323.867 200.144ZM336.899 191.232V200H335.443V198.704C335.165 199.152 334.776 199.504 334.275 199.76C333.784 200.005 333.24 200.128 332.643 200.128C331.96 200.128 331.347 199.989 330.803 199.712C330.259 199.424 329.827 198.997 329.507 198.432C329.197 197.867 329.043 197.179 329.043 196.368V191.232H330.483V196.176C330.483 197.04 330.701 197.707 331.139 198.176C331.576 198.635 332.173 198.864 332.931 198.864C333.709 198.864 334.323 198.624 334.771 198.144C335.219 197.664 335.443 196.965 335.443 196.048V191.232H336.899ZM349.901 191.072C350.584 191.072 351.192 191.216 351.725 191.504C352.258 191.781 352.68 192.203 352.989 192.768C353.298 193.333 353.453 194.021 353.453 194.832V200H352.013V195.04C352.013 194.165 351.794 193.499 351.357 193.04C350.93 192.571 350.349 192.336 349.613 192.336C348.856 192.336 348.253 192.581 347.805 193.072C347.357 193.552 347.133 194.251 347.133 195.168V200H345.693V195.04C345.693 194.165 345.474 193.499 345.037 193.04C344.61 192.571 344.029 192.336 343.293 192.336C342.536 192.336 341.933 192.581 341.485 193.072C341.037 193.552 340.813 194.251 340.813 195.168V200H339.357V191.232H340.813V192.496C341.101 192.037 341.485 191.685 341.965 191.44C342.456 191.195 342.994 191.072 343.581 191.072C344.317 191.072 344.968 191.237 345.533 191.568C346.098 191.899 346.52 192.384 346.797 193.024C347.042 192.405 347.448 191.925 348.013 191.584C348.578 191.243 349.208 191.072 349.901 191.072Z" fill="#5A5A5A"/>
<path d="M472.688 269.816H476.592V271H471.232V259.848H472.688V269.816ZM481.962 271.144C481.141 271.144 480.394 270.957 479.722 270.584C479.061 270.211 478.538 269.683 478.154 269C477.781 268.307 477.594 267.507 477.594 266.6C477.594 265.704 477.786 264.915 478.17 264.232C478.565 263.539 479.098 263.011 479.77 262.648C480.442 262.275 481.194 262.088 482.026 262.088C482.858 262.088 483.61 262.275 484.282 262.648C484.954 263.011 485.482 263.533 485.866 264.216C486.261 264.899 486.458 265.693 486.458 266.6C486.458 267.507 486.256 268.307 485.85 269C485.456 269.683 484.917 270.211 484.234 270.584C483.552 270.957 482.794 271.144 481.962 271.144ZM481.962 269.864C482.485 269.864 482.976 269.741 483.434 269.496C483.893 269.251 484.261 268.883 484.538 268.392C484.826 267.901 484.97 267.304 484.97 266.6C484.97 265.896 484.832 265.299 484.554 264.808C484.277 264.317 483.914 263.955 483.466 263.72C483.018 263.475 482.533 263.352 482.01 263.352C481.477 263.352 480.986 263.475 480.538 263.72C480.101 263.955 479.749 264.317 479.482 264.808C479.216 265.299 479.082 265.896 479.082 266.6C479.082 267.315 479.21 267.917 479.466 268.408C479.733 268.899 480.085 269.267 480.522 269.512C480.96 269.747 481.44 269.864 481.962 269.864ZM489.829 263.656C490.085 263.155 490.447 262.765 490.917 262.488C491.397 262.211 491.978 262.072 492.661 262.072V263.576H492.277C490.645 263.576 489.829 264.461 489.829 266.232V271H488.373V262.232H489.829V263.656ZM502.341 266.28C502.341 266.557 502.325 266.851 502.293 267.16H495.285C495.339 268.024 495.632 268.701 496.165 269.192C496.709 269.672 497.365 269.912 498.133 269.912C498.763 269.912 499.285 269.768 499.701 269.48C500.128 269.181 500.427 268.787 500.597 268.296H502.165C501.931 269.139 501.461 269.827 500.757 270.36C500.053 270.883 499.179 271.144 498.133 271.144C497.301 271.144 496.555 270.957 495.893 270.584C495.243 270.211 494.731 269.683 494.357 269C493.984 268.307 493.797 267.507 493.797 266.6C493.797 265.693 493.979 264.899 494.341 264.216C494.704 263.533 495.211 263.011 495.861 262.648C496.523 262.275 497.28 262.088 498.133 262.088C498.965 262.088 499.701 262.269 500.341 262.632C500.981 262.995 501.472 263.496 501.813 264.136C502.165 264.765 502.341 265.48 502.341 266.28ZM500.837 265.976C500.837 265.421 500.715 264.947 500.469 264.552C500.224 264.147 499.888 263.843 499.461 263.64C499.045 263.427 498.581 263.32 498.069 263.32C497.333 263.32 496.704 263.555 496.181 264.024C495.669 264.493 495.376 265.144 495.301 265.976H500.837ZM514.807 262.072C515.49 262.072 516.098 262.216 516.631 262.504C517.165 262.781 517.586 263.203 517.895 263.768C518.205 264.333 518.359 265.021 518.359 265.832V271H516.919V266.04C516.919 265.165 516.701 264.499 516.263 264.04C515.837 263.571 515.255 263.336 514.519 263.336C513.762 263.336 513.159 263.581 512.711 264.072C512.263 264.552 512.039 265.251 512.039 266.168V271H510.599V266.04C510.599 265.165 510.381 264.499 509.943 264.04C509.517 263.571 508.935 263.336 508.199 263.336C507.442 263.336 506.839 263.581 506.391 264.072C505.943 264.552 505.719 265.251 505.719 266.168V271H504.263V262.232H505.719V263.496C506.007 263.037 506.391 262.685 506.871 262.44C507.362 262.195 507.901 262.072 508.487 262.072C509.223 262.072 509.874 262.237 510.439 262.568C511.005 262.899 511.426 263.384 511.703 264.024C511.949 263.405 512.354 262.925 512.919 262.584C513.485 262.243 514.114 262.072 514.807 262.072ZM525.765 260.808C525.488 260.808 525.253 260.712 525.061 260.52C524.869 260.328 524.773 260.093 524.773 259.816C524.773 259.539 524.869 259.304 525.061 259.112C525.253 258.92 525.488 258.824 525.765 258.824C526.032 258.824 526.256 258.92 526.437 259.112C526.629 259.304 526.725 259.539 526.725 259.816C526.725 260.093 526.629 260.328 526.437 260.52C526.256 260.712 526.032 260.808 525.765 260.808ZM526.469 262.232V271H525.013V262.232H526.469ZM530.407 263.848C530.695 263.347 531.121 262.931 531.687 262.6C532.263 262.259 532.929 262.088 533.687 262.088C534.465 262.088 535.169 262.275 535.799 262.648C536.439 263.021 536.94 263.549 537.303 264.232C537.665 264.904 537.847 265.688 537.847 266.584C537.847 267.469 537.665 268.259 537.303 268.952C536.94 269.645 536.439 270.184 535.799 270.568C535.169 270.952 534.465 271.144 533.687 271.144C532.94 271.144 532.279 270.979 531.703 270.648C531.137 270.307 530.705 269.885 530.407 269.384V275.16H528.951V262.232H530.407V263.848ZM536.359 266.584C536.359 265.923 536.225 265.347 535.959 264.856C535.692 264.365 535.329 263.992 534.871 263.736C534.423 263.48 533.927 263.352 533.383 263.352C532.849 263.352 532.353 263.485 531.895 263.752C531.447 264.008 531.084 264.387 530.807 264.888C530.54 265.379 530.407 265.949 530.407 266.6C530.407 267.261 530.54 267.843 530.807 268.344C531.084 268.835 531.447 269.213 531.895 269.48C532.353 269.736 532.849 269.864 533.383 269.864C533.927 269.864 534.423 269.736 534.871 269.48C535.329 269.213 535.692 268.835 535.959 268.344C536.225 267.843 536.359 267.256 536.359 266.584ZM542.867 271.144C542.195 271.144 541.593 271.032 541.059 270.808C540.526 270.573 540.105 270.253 539.795 269.848C539.486 269.432 539.315 268.957 539.283 268.424H540.787C540.83 268.861 541.033 269.219 541.395 269.496C541.769 269.773 542.254 269.912 542.851 269.912C543.406 269.912 543.843 269.789 544.163 269.544C544.483 269.299 544.643 268.989 544.643 268.616C544.643 268.232 544.473 267.949 544.131 267.768C543.79 267.576 543.262 267.389 542.547 267.208C541.897 267.037 541.363 266.867 540.947 266.696C540.542 266.515 540.19 266.253 539.891 265.912C539.603 265.56 539.459 265.101 539.459 264.536C539.459 264.088 539.593 263.677 539.859 263.304C540.126 262.931 540.505 262.637 540.995 262.424C541.486 262.2 542.046 262.088 542.675 262.088C543.646 262.088 544.43 262.333 545.027 262.824C545.625 263.315 545.945 263.987 545.987 264.84H544.531C544.499 264.381 544.313 264.013 543.971 263.736C543.641 263.459 543.193 263.32 542.627 263.32C542.105 263.32 541.689 263.432 541.379 263.656C541.07 263.88 540.915 264.173 540.915 264.536C540.915 264.824 541.006 265.064 541.187 265.256C541.379 265.437 541.614 265.587 541.891 265.704C542.179 265.811 542.574 265.933 543.075 266.072C543.705 266.243 544.217 266.413 544.611 266.584C545.006 266.744 545.342 266.989 545.619 267.32C545.907 267.651 546.057 268.083 546.067 268.616C546.067 269.096 545.934 269.528 545.667 269.912C545.401 270.296 545.022 270.6 544.531 270.824C544.051 271.037 543.497 271.144 542.867 271.144ZM555.899 262.232V271H554.443V269.704C554.165 270.152 553.776 270.504 553.275 270.76C552.784 271.005 552.24 271.128 551.643 271.128C550.96 271.128 550.347 270.989 549.803 270.712C549.259 270.424 548.827 269.997 548.507 269.432C548.197 268.867 548.043 268.179 548.043 267.368V262.232H549.483V267.176C549.483 268.04 549.701 268.707 550.139 269.176C550.576 269.635 551.173 269.864 551.931 269.864C552.709 269.864 553.323 269.624 553.771 269.144C554.219 268.664 554.443 267.965 554.443 267.048V262.232H555.899ZM568.901 262.072C569.584 262.072 570.192 262.216 570.725 262.504C571.258 262.781 571.68 263.203 571.989 263.768C572.298 264.333 572.453 265.021 572.453 265.832V271H571.013V266.04C571.013 265.165 570.794 264.499 570.357 264.04C569.93 263.571 569.349 263.336 568.613 263.336C567.856 263.336 567.253 263.581 566.805 264.072C566.357 264.552 566.133 265.251 566.133 266.168V271H564.693V266.04C564.693 265.165 564.474 264.499 564.037 264.04C563.61 263.571 563.029 263.336 562.293 263.336C561.536 263.336 560.933 263.581 560.485 264.072C560.037 264.552 559.813 265.251 559.813 266.168V271H558.357V262.232H559.813V263.496C560.101 263.037 560.485 262.685 560.965 262.44C561.456 262.195 561.994 262.072 562.581 262.072C563.317 262.072 563.968 262.237 564.533 262.568C565.098 262.899 565.52 263.384 565.797 264.024C566.042 263.405 566.448 262.925 567.013 262.584C567.578 262.243 568.208 262.072 568.901 262.072Z" fill="#5A5A5A"/>
</svg>
