<svg width="20" height="20" viewBox="0 0 20 20" fill="none" xmlns="http://www.w3.org/2000/svg">
<path d="M18.8803 17.2817H1.99376V0.514163C1.99376 0.39593 1.9054 0.299194 1.7974 0.299194H0.422918C0.314922 0.299194 0.226562 0.39593 0.226562 0.514163V19.0014C0.226562 19.1197 0.314922 19.2164 0.422918 19.2164H18.8803C18.9883 19.2164 19.0767 19.1197 19.0767 19.0014V17.4967C19.0767 17.3784 18.9883 17.2817 18.8803 17.2817ZM4.15367 15.132H5.52815C5.63615 15.132 5.72451 15.0353 5.72451 14.917V11.0476C5.72451 10.9294 5.63615 10.8326 5.52815 10.8326H4.15367C4.04567 10.8326 3.95731 10.9294 3.95731 11.0476V14.917C3.95731 15.0353 4.04567 15.132 4.15367 15.132ZM7.88442 15.132H9.2589C9.3669 15.132 9.45526 15.0353 9.45526 14.917V6.31831C9.45526 6.20007 9.3669 6.10334 9.2589 6.10334H7.88442C7.77642 6.10334 7.68806 6.20007 7.68806 6.31831V14.917C7.68806 15.0353 7.77642 15.132 7.88442 15.132ZM11.6152 15.132H12.9897C13.0976 15.132 13.186 15.0353 13.186 14.917V8.41425C13.186 8.29601 13.0976 8.19928 12.9897 8.19928H11.6152C11.5072 8.19928 11.4188 8.29601 11.4188 8.41425V14.917C11.4188 15.0353 11.5072 15.132 11.6152 15.132ZM15.3459 15.132H16.7204C16.8284 15.132 16.9168 15.0353 16.9168 14.917V4.16862C16.9168 4.05039 16.8284 3.95366 16.7204 3.95366H15.3459C15.2379 3.95366 15.1496 4.05039 15.1496 4.16862V14.917C15.1496 15.0353 15.2379 15.132 15.3459 15.132Z" fill="#3282AD"/>
</svg>
