<svg width="17" height="17" viewBox="0 0 17 17" fill="none" xmlns="http://www.w3.org/2000/svg">
<path d="M12.5243 6.99709C12.5243 5.80129 12.0493 4.65447 11.2038 3.80892C10.3582 2.96336 9.21138 2.48833 8.01558 2.48833C6.81979 2.48833 5.67297 2.96336 4.82741 3.80892C3.98186 4.65447 3.50683 5.80129 3.50683 6.99709C3.50683 8.84668 4.9867 11.2574 8.01558 14.145C11.0445 11.2574 12.5243 8.84668 12.5243 6.99709ZM8.01558 15.5136C4.34145 12.1741 2.50488 9.33463 2.50488 6.99709C2.50488 5.53556 3.08547 4.13389 4.11893 3.10044C5.15239 2.06698 6.55405 1.48639 8.01558 1.48639C9.47711 1.48639 10.8788 2.06698 11.9122 3.10044C12.9457 4.13389 13.5263 5.53556 13.5263 6.99709C13.5263 9.33463 11.6897 12.1741 8.01558 15.5136Z" fill="black"/>
<path d="M8.01561 8.49997C8.4142 8.49997 8.79648 8.34163 9.07833 8.05978C9.36018 7.77792 9.51852 7.39565 9.51852 6.99705C9.51852 6.59845 9.36018 6.21618 9.07833 5.93433C8.79648 5.65248 8.4142 5.49413 8.01561 5.49413C7.61701 5.49413 7.23473 5.65248 6.95288 5.93433C6.67103 6.21618 6.51269 6.59845 6.51269 6.99705C6.51269 7.39565 6.67103 7.77792 6.95288 8.05978C7.23473 8.34163 7.61701 8.49997 8.01561 8.49997ZM8.01561 9.50191C7.35127 9.50191 6.71415 9.23801 6.2444 8.76826C5.77465 8.2985 5.51074 7.66138 5.51074 6.99705C5.51074 6.33272 5.77465 5.6956 6.2444 5.22585C6.71415 4.75609 7.35127 4.49219 8.01561 4.49219C8.67994 4.49219 9.31706 4.75609 9.78681 5.22585C10.2566 5.6956 10.5205 6.33272 10.5205 6.99705C10.5205 7.66138 10.2566 8.2985 9.78681 8.76826C9.31706 9.23801 8.67994 9.50191 8.01561 9.50191Z" fill="black"/>
</svg>
