<svg width="25" height="25" viewBox="0 0 25 25" fill="none" xmlns="http://www.w3.org/2000/svg">
<g clip-path="url(#clip0_1526_1868)">
<path d="M4.06421 20.303H21.3975" stroke="#B05D33"/>
<path d="M2.49534 21.3709C2.36516 21.4975 2.36516 21.7029 2.49534 21.8295C2.62551 21.9562 2.83657 21.9562 2.96674 21.8295L2.49534 21.3709ZM7.63344 17.289C7.76357 17.1624 7.76357 16.957 7.63344 16.8303C7.50324 16.7037 7.29218 16.7037 7.16201 16.8303L7.63344 17.289ZM2.96674 21.8295L7.63344 17.289L7.16201 16.8303L2.49534 21.3709L2.96674 21.8295Z" fill="#D67B4D"/>
<path d="M2.49534 21.3709C2.36516 21.4975 2.36516 21.7029 2.49534 21.8295C2.62551 21.9562 2.83657 21.9562 2.96674 21.8295L2.49534 21.3709ZM7.63344 17.289C7.76357 17.1624 7.76357 16.957 7.63344 16.8303C7.50324 16.7037 7.29218 16.7037 7.16201 16.8303L7.63344 17.289ZM2.96674 21.8295L7.63344 17.289L7.16201 16.8303L2.49534 21.3709L2.96674 21.8295Z" fill="#D67B4D"/>
<path d="M22.9667 21.3709C23.0968 21.4975 23.0968 21.7029 22.9667 21.8295C22.8365 21.9562 22.6254 21.9562 22.4952 21.8295L22.9667 21.3709ZM17.8286 17.289C17.6984 17.1624 17.6984 16.957 17.8286 16.8303C17.9588 16.7037 18.1698 16.7037 18.3 16.8303L17.8286 17.289ZM22.4952 21.8295L17.8286 17.289L18.3 16.8303L22.9667 21.3709L22.4952 21.8295Z" fill="#D67B4D"/>
<path d="M22.9667 21.3709C23.0968 21.4975 23.0968 21.7029 22.9667 21.8295C22.8365 21.9562 22.6254 21.9562 22.4952 21.8295L22.9667 21.3709ZM17.8286 17.289C17.6984 17.1624 17.6984 16.957 17.8286 16.8303C17.9588 16.7037 18.1698 16.7037 18.3 16.8303L17.8286 17.289ZM22.4952 21.8295L17.8286 17.289L18.3 16.8303L22.9667 21.3709L22.4952 21.8295Z" fill="#D67B4D"/>
<path fill-rule="evenodd" clip-rule="evenodd" d="M8.06421 2.95309C8.28641 2.83711 8.79754 2.46598 9.06421 1.90928C9.39754 1.21341 9.73088 0.865479 10.7309 0.865479H12.0642H14.0642C15.0642 0.865479 15.3975 1.21341 15.7309 1.90928C15.9975 2.46598 16.5087 2.83711 16.7309 2.95309H18.7309C19.8355 2.95309 20.7309 3.82432 20.7309 4.89904V13.1674C20.7309 16.7499 17.7461 19.6539 14.0642 19.6539H10.7309C7.04898 19.6539 4.06421 16.7499 4.06421 13.1674V4.89904C4.06421 3.82432 4.95964 2.95309 6.06421 2.95309H8.06421Z" fill="#42A8C3"/>
<path d="M14.0643 2.81149C14.0643 2.73465 14.0156 2.65591 13.9398 2.58033C13.5553 2.19701 12.9481 2.16284 12.3976 2.16284C11.8472 2.16284 11.2182 2.16703 10.846 2.56164C10.7756 2.63623 10.731 2.71951 10.731 2.81149C10.731 3.13581 10.731 3.46014 11.1476 3.46014H13.6476C14.0643 3.46014 14.0643 3.13581 14.0643 2.81149Z" fill="white"/>
<path d="M6.73096 6.68134C6.73096 5.96485 7.32791 5.38403 8.06429 5.38403H16.731C17.4674 5.38403 18.0643 5.96485 18.0643 6.68134V9.27594C18.0643 11.4254 16.2734 13.1678 14.0643 13.1678H10.731C8.52182 13.1678 6.73096 11.4254 6.73096 9.27594V6.68134Z" fill="white"/>
<mask id="mask0_1526_1868" style="mask-type:alpha" maskUnits="userSpaceOnUse" x="6" y="5" width="13" height="9">
<path d="M6.73096 6.68134C6.73096 5.96485 7.32791 5.38403 8.06429 5.38403H16.731C17.4674 5.38403 18.0643 5.96485 18.0643 6.68134V9.27594C18.0643 11.4254 16.2734 13.1678 14.0643 13.1678H10.731C8.52182 13.1678 6.73096 11.4254 6.73096 9.27594V6.68134Z" fill="white"/>
</mask>
<g mask="url(#mask0_1526_1868)">
<path d="M17.0647 6.35701C17.0647 5.57863 15.8425 5.38403 15.0647 5.38403H18.0647L18.0647 13.4922C15.8425 13.6002 9.66467 13.4922 10.7313 13.4922C12.0647 13.4922 14.398 12.5192 15.3981 11.8705C16.3129 11.2771 17.0647 10.2489 17.0647 9.27594V6.35701Z" fill="#C3D3DB"/>
</g>
</g>
<defs>
<clipPath id="clip0_1526_1868">
<rect width="24" height="24" fill="white" transform="translate(0.730957 0.172607)"/>
</clipPath>
</defs>
</svg>
