<svg width="14" height="15" viewBox="0 0 14 15" fill="none" xmlns="http://www.w3.org/2000/svg">
<path d="M12.9925 0.571502L12.9925 0.571516L0.491562 5.30308L0.483266 5.30622V5.30534C0.346169 5.35945 0.228717 5.454 0.14657 5.57649C0.0632432 5.70074 0.0203037 5.84768 0.0236156 5.99725C0.0269276 6.14682 0.0763296 6.29172 0.165074 6.41216C0.25378 6.53255 0.377472 6.62263 0.519268 6.67012C0.519329 6.67014 0.519391 6.67016 0.519453 6.67018L0.531912 6.67413L0.534076 6.67481L0.534033 6.67492L4.82347 8.5066C4.90288 8.53048 4.98716 8.53322 5.06797 8.51455C5.14919 8.49579 5.22406 8.45605 5.28512 8.3993L12.1708 1.98334C12.1709 1.98324 12.171 1.98314 12.1711 1.98304C12.1937 1.96048 12.2205 1.94258 12.25 1.93035C12.2797 1.91807 12.3115 1.91175 12.3436 1.91175C12.3757 1.91175 12.4075 1.91807 12.4371 1.93035C12.4668 1.94264 12.4937 1.96064 12.5164 1.98334C12.5391 2.00603 12.5571 2.03297 12.5694 2.06263C12.5817 2.09228 12.588 2.12406 12.588 2.15616C12.588 2.18825 12.5817 2.22004 12.5694 2.24969C12.5572 2.27921 12.5393 2.30605 12.5167 2.32869C12.5166 2.32878 12.5165 2.32888 12.5164 2.32898L6.10012 9.21149L12.9925 0.571502ZM12.9925 0.571502C13.1235 0.521713 13.266 0.510826 13.4029 0.540152C13.5399 0.569474 13.6654 0.63775 13.7645 0.736761M12.9925 0.571502L13.7645 0.736761M13.7645 0.736761C13.8636 0.83623 13.9317 0.962275 13.9607 1.09965C13.9896 1.23703 13.9781 1.37985 13.9276 1.51085L13.9276 1.51099L9.19683 14.0081L13.7645 0.736761ZM8.46858 14.4999H8.49983C8.65427 14.5008 8.80542 14.4552 8.9336 14.369C9.06178 14.2829 9.16108 14.1601 9.21858 14.0168L9.19666 14.0085L9.19674 14.0083C9.14097 14.1472 9.04474 14.2661 8.92052 14.3496C8.79624 14.4331 8.64971 14.4773 8.49996 14.4765H8.49983H8.4691M8.46858 14.4999L8.46963 14.4765C8.46945 14.4765 8.46928 14.4765 8.4691 14.4765M8.46858 14.4999V14.4765H8.4691M8.46858 14.4999C8.16264 14.4862 7.90952 14.2818 7.80952 13.9921C7.80733 13.9862 7.80545 13.9805 7.80358 13.9743L5.97077 9.68116M8.4691 14.4765C8.17379 14.463 7.92874 14.2657 7.83168 13.9844L7.83151 13.984C7.82949 13.9785 7.82777 13.9734 7.82603 13.9675L7.82617 13.9675L7.82513 13.9651L5.99283 9.67315M5.99283 9.67315C5.99295 9.67355 5.99307 9.67395 5.99319 9.67435L5.97077 9.68116M5.99283 9.67315C5.96895 9.59373 5.9662 9.50946 5.98487 9.42865C6.00363 9.34744 6.04336 9.27257 6.1001 9.21152L5.96204 9.42337C5.94235 9.50858 5.94536 9.59747 5.97077 9.68116M5.99283 9.67315L5.99232 9.67196L5.97077 9.68116" fill="white" stroke="white" stroke-width="0.046875"/>
</svg>
