<svg width="23" height="22" viewBox="0 0 23 22" fill="none" xmlns="http://www.w3.org/2000/svg">
<path d="M10.3136 1.51641C10.6129 0.595097 11.9163 0.595096 12.2157 1.51641L14.0882 7.27927C14.222 7.69129 14.606 7.97025 15.0392 7.97025H21.0986C22.0674 7.97025 22.4701 9.20987 21.6864 9.77927L16.7843 13.3409C16.4338 13.5956 16.2871 14.0469 16.421 14.4589L18.2934 20.2218C18.5928 21.1431 17.5383 21.9092 16.7546 21.3398L11.8524 17.7782C11.5019 17.5236 11.0273 17.5236 10.6768 17.7782L5.77467 21.3398C4.99095 21.9092 3.93647 21.1431 4.23583 20.2218L6.10829 14.4589C6.24217 14.0469 6.09551 13.5956 5.74502 13.3409L0.84284 9.77927C0.0591269 9.20987 0.461901 7.97025 1.43062 7.97025H7.49005C7.92328 7.97025 8.30724 7.69129 8.44111 7.27927L10.3136 1.51641Z" fill="#3282AD"/>
</svg>
