<svg width="26" height="23" viewBox="0 0 26 23" fill="none" xmlns="http://www.w3.org/2000/svg">
<path d="M3 23C2.3125 23 1.72417 22.7554 1.235 22.2663C0.745 21.7763 0.5 21.1875 0.5 20.5V5.5C0.5 4.8125 0.745 4.22417 1.235 3.735C1.72417 3.245 2.3125 3 3 3H15.625C15.5417 3.41667 15.5 3.83333 15.5 4.25C15.5 4.66667 15.5417 5.08333 15.625 5.5H3V20.5H23V10.375C23.4792 10.2708 23.9271 10.125 24.3437 9.9375C24.7604 9.75 25.1458 9.52083 25.5 9.25V20.5C25.5 21.1875 25.2554 21.7763 24.7662 22.2663C24.2762 22.7554 23.6875 23 23 23H3ZM3 5.5V20.5V5.5ZM21.75 8C20.7083 8 19.8229 7.63542 19.0937 6.90625C18.3646 6.17708 18 5.29167 18 4.25C18 3.20833 18.3646 2.32292 19.0937 1.59375C19.8229 0.864583 20.7083 0.5 21.75 0.5C22.7917 0.5 23.6771 0.864583 24.4062 1.59375C25.1354 2.32292 25.5 3.20833 25.5 4.25C25.5 5.29167 25.1354 6.17708 24.4062 6.90625C23.6771 7.63542 22.7917 8 21.75 8ZM13 11.75L17.5625 8.90625C17.8542 9.17708 18.1721 9.41125 18.5162 9.60875C18.8596 9.80708 19.2187 9.97917 19.5937 10.125L13.6562 13.8438C13.4479 13.9688 13.2292 14.0312 13 14.0312C12.7708 14.0312 12.5521 13.9688 12.3437 13.8438L3 8V5.5L13 11.75Z" fill="#3282AD"/>
</svg>
