<svg width="25" height="25" viewBox="0 0 25 25" fill="none" xmlns="http://www.w3.org/2000/svg">
<path d="M12.4654 13.8504V1.38504C12.4654 0.992613 12.5983 0.663435 12.8643 0.397507C13.1293 0.132502 13.458 0 13.8504 0H23.5457C23.9381 0 24.2669 0.132502 24.5319 0.397507C24.7978 0.663435 24.9307 0.992613 24.9307 1.38504V8.31025C24.9307 8.70268 24.7978 9.03139 24.5319 9.2964C24.2669 9.56233 23.9381 9.69529 23.5457 9.69529H16.6205L12.4654 13.8504ZM23.4765 25C20.4986 25 17.596 24.3361 14.7687 23.0083C11.9404 21.6814 9.43583 19.9271 7.25485 17.7452C5.07295 15.5642 3.31856 13.0596 1.99169 10.2313C0.663897 7.40397 0 4.50139 0 1.52355C0 1.10803 0.138504 0.761773 0.415512 0.484764C0.692521 0.207756 1.03878 0.069252 1.45429 0.069252H7.06371C7.38689 0.069252 7.67544 0.17313 7.92936 0.380886C8.18329 0.588642 8.33333 0.854109 8.3795 1.17729L9.27978 6.02493C9.32595 6.34811 9.32041 6.6422 9.26316 6.9072C9.20499 7.17313 9.07202 7.40997 8.86427 7.61773L5.54017 11.0111C6.5097 12.6731 7.72161 14.2313 9.1759 15.6856C10.6302 17.1399 12.2345 18.398 13.9889 19.4598L17.2438 16.205C17.4515 15.9972 17.723 15.8412 18.0582 15.7368C18.3924 15.6334 18.7211 15.6048 19.0443 15.651L23.8227 16.6205C24.1459 16.6898 24.4114 16.8453 24.6191 17.0873C24.8269 17.3301 24.9307 17.6131 24.9307 17.9363V23.5457C24.9307 23.9612 24.7922 24.3075 24.5152 24.5845C24.2382 24.8615 23.892 25 23.4765 25Z" fill="#3282AD"/>
</svg>
