<svg width="15" height="16" viewBox="0 0 15 16" fill="none" xmlns="http://www.w3.org/2000/svg">
<path d="M7.47922 8.81025V1.33102C7.47922 1.09557 7.559 0.898061 7.71856 0.738504C7.87756 0.579501 8.07479 0.5 8.31025 0.5H14.1274C14.3629 0.5 14.5601 0.579501 14.7191 0.738504C14.8787 0.898061 14.9584 1.09557 14.9584 1.33102V5.48615C14.9584 5.72161 14.8787 5.91884 14.7191 6.07784C14.5601 6.2374 14.3629 6.31717 14.1274 6.31717H9.9723L7.47922 8.81025ZM14.0859 15.5C12.2992 15.5 10.5576 15.1017 8.86122 14.305C7.16427 13.5089 5.6615 12.4562 4.35291 11.1471C3.04377 9.8385 1.99114 8.33573 1.19501 6.63878C0.398338 4.94238 0 3.20083 0 1.41413C0 1.16482 0.0831024 0.957064 0.249307 0.790859C0.415512 0.624654 0.623269 0.541551 0.872576 0.541551H4.23823C4.43213 0.541551 4.60526 0.603878 4.75762 0.728532C4.90997 0.853185 5 1.01247 5.0277 1.20637L5.56787 4.11496C5.59557 4.30886 5.59224 4.48532 5.55789 4.64432C5.52299 4.80388 5.44321 4.94598 5.31856 5.07064L3.3241 7.10665C3.90582 8.10388 4.63296 9.03878 5.50554 9.91136C6.37812 10.7839 7.34072 11.5388 8.39335 12.1759L10.3463 10.223C10.4709 10.0983 10.6338 10.0047 10.8349 9.94211C11.0355 9.88006 11.2327 9.86288 11.4266 9.89058L14.2936 10.4723C14.4875 10.5139 14.6468 10.6072 14.7715 10.7524C14.8961 10.8981 14.9584 11.0679 14.9584 11.2618V14.6274C14.9584 14.8767 14.8753 15.0845 14.7091 15.2507C14.5429 15.4169 14.3352 15.5 14.0859 15.5Z" fill="#9A9A9A"/>
</svg>
