<svg width="1060" height="353" viewBox="0 0 1060 353" fill="none" xmlns="http://www.w3.org/2000/svg">
<rect y="83" width="1060" height="269" rx="10" fill="black"/>
<ellipse cx="893.5" cy="217.47" rx="110" ry="109.47" fill="url(#paint0_linear_480_2687)"/>
<g clip-path="url(#clip0_480_2687)">
<path d="M965.059 59.9572L964.752 62.8461L928.294 297.166C926.851 306.439 919.966 312.802 912.44 312.421H912.141H911.845H911.545H911.246H910.95H910.813C916.242 312.08 921.167 308.259 923.712 302.467C923.863 302.119 924.008 301.768 924.141 301.405C924.233 301.165 924.318 300.921 924.4 300.665C924.775 299.524 925.056 298.354 925.239 297.166L962.101 60.279C962.127 60.1274 962.149 59.9757 962.164 59.8278C962.258 59.1543 962.319 58.4765 962.345 57.797C962.693 49.0269 957.364 42.3799 949.69 42.2615H949.236H948.781H948.326C948.178 42.2615 948.023 42.2615 947.871 42.2615H947.416H947.117H946.802L946.399 42.2134H946.377L945.989 42.1838C946.122 42.1838 946.248 42.1838 946.381 42.1838H946.835C946.987 42.1838 947.139 42.1838 947.29 42.1838H947.734H948.189C948.341 42.1838 948.489 42.1838 948.644 42.1838H949.099H949.554H950.008H950.463H950.918C951.07 42.1838 951.218 42.1838 951.369 42.1838H951.48C960.167 43.4008 966.054 50.5841 965.059 59.9572Z" fill="url(#paint1_linear_480_2687)"/>
<path d="M962.101 60.2459L925.25 297.126C923.9 305.803 917.776 311.94 910.828 312.373H910.665H910.365H910.066C909.97 312.373 909.866 312.373 909.77 312.373H909.471H909.171H908.871H908.572H908.276H907.984C907.185 312.352 906.39 312.245 905.614 312.055L851.049 298.465L850.946 298.439L835.602 294.884C828.51 293.249 824.002 284.483 825.429 275.28L857.972 66.1161L858.649 61.4813C859.425 56.1586 861.936 51.3611 865.235 48.217C865.501 47.9617 865.775 47.7176 866.052 47.4772C866.237 47.3218 866.422 47.1702 866.614 47.0259C866.806 46.8816 866.984 46.7448 867.187 46.6079C867.843 46.1491 868.537 45.7481 869.262 45.4095C869.465 45.317 869.672 45.2282 869.876 45.1505C870.979 44.7071 872.149 44.4568 873.337 44.4108L944.432 42.0693L946.787 42.1433H946.939C947.094 42.1433 947.246 42.1433 947.394 42.1433C947.542 42.1433 947.701 42.1433 947.849 42.1433C947.997 42.1433 948.156 42.1433 948.304 42.1433H948.758C948.91 42.1433 949.062 42.1433 949.213 42.1433H949.668C958.059 42.3505 963.643 50.281 962.101 60.2459Z" fill="url(#paint2_linear_480_2687)"/>
<path d="M950.267 45.9457C950.062 45.7992 949.85 45.6634 949.631 45.5388C949.835 45.6497 950.049 45.7866 950.267 45.9457ZM949.158 45.2836C949.31 45.3575 949.454 45.4352 949.602 45.5203C949.531 45.487 949.465 45.4463 949.398 45.413L949.158 45.2836ZM947.22 44.5697C947.641 44.6725 948.053 44.8048 948.455 44.9654L948.722 45.0801C948.166 44.8354 947.588 44.647 946.995 44.5179L947.22 44.5697ZM946.788 44.4735L946.662 44.4513L946.44 44.4143C946.629 44.4402 946.81 44.4809 946.995 44.5179H946.961L946.788 44.4735ZM948.932 45.1763H948.899L948.722 45.0949C948.866 45.1615 949.014 45.2244 949.154 45.2946L948.932 45.1763ZM945.974 44.3477H945.726L946.174 44.3958L946.44 44.4328C946.307 44.4069 946.174 44.3884 946.041 44.3736L945.974 44.3477ZM835.828 292.48L835.935 292.524H835.917L835.828 292.48ZM835.721 292.432H835.739L835.636 292.387L835.721 292.432ZM835.584 292.369L835.636 292.391L835.525 292.339L835.584 292.369ZM833.65 291.133C833.616 291.108 833.584 291.081 833.554 291.052L833.65 291.133ZM832.947 290.497L833.073 290.619L832.94 290.486L832.947 290.497ZM829.848 285.54L829.934 285.766L829.989 285.907L829.9 285.67C829.882 285.637 829.867 285.585 829.848 285.54ZM828.813 281.35V281.427C828.813 281.35 828.791 281.265 828.783 281.183C828.798 281.239 828.809 281.298 828.813 281.35ZM828.724 280.547C828.724 280.547 828.724 280.573 828.724 280.584C828.722 280.567 828.722 280.549 828.724 280.532V280.547ZM828.702 280.251C828.7 280.261 828.7 280.271 828.702 280.281C828.702 280.184 828.702 280.081 828.68 279.981C828.687 280.088 828.695 280.159 828.702 280.251ZM946.788 42.1875C946.518 42.1505 946.248 42.1284 945.974 42.1099C945.87 42.1099 945.759 42.1099 945.649 42.1099C945.538 42.1099 945.364 42.1099 945.223 42.1099C945.083 42.1099 945.053 42.1099 944.964 42.1099H944.447L873.348 44.4661C872.16 44.5104 870.989 44.7608 869.887 45.2059C869.684 45.2872 869.477 45.3723 869.273 45.4685C868.546 45.805 867.85 46.2061 867.195 46.6669C867.003 46.7964 866.825 46.9407 866.625 47.0849C866.426 47.2292 866.256 47.3771 866.063 47.5325C865.786 47.7655 865.512 48.0097 865.246 48.2723C861.947 51.4164 859.436 56.2139 858.66 61.533L857.983 66.1788L827.46 275.361C826.113 284.564 830.259 293.319 836.804 294.939L850.946 298.439L851.049 298.465L905.591 311.969C906.462 312.188 907.356 312.297 908.254 312.295C914.962 312.276 921.016 306.007 922.329 296.989L956.891 60.0756C958.259 50.6803 953.781 43.1049 946.788 42.1875ZM956.709 57.4345V57.8636C956.709 58.0116 956.709 58.1558 956.683 58.3001C956.658 58.4444 956.661 58.596 956.65 58.7403C956.624 59.0103 956.598 59.2803 956.561 59.5577C956.542 59.7304 956.52 59.9042 956.495 60.0793L956.243 61.7919L922.222 295.195C921.956 297.035 921.459 298.835 920.742 300.551C920.691 300.677 920.639 300.802 920.583 300.921C920.528 301.039 920.472 301.172 920.413 301.291C920.354 301.409 920.328 301.475 920.284 301.564C920.151 301.834 920.014 302.101 919.87 302.36C919.81 302.478 919.744 302.593 919.681 302.704C919.618 302.814 919.496 303.018 919.4 303.173C919.304 303.329 919.274 303.38 919.208 303.48C919.141 303.58 919.071 303.695 918.997 303.802C918.805 304.094 918.597 304.383 918.383 304.664C918.316 304.749 918.25 304.838 918.18 304.923C918.109 305.008 918.024 305.119 917.943 305.211C917.862 305.304 917.788 305.4 917.706 305.493C917.625 305.585 917.547 305.677 917.462 305.766C917.377 305.855 917.299 305.948 917.211 306.036C917.048 306.214 916.874 306.384 916.7 306.547C916.434 306.802 916.164 307.046 915.883 307.287L915.632 307.49C915.439 307.638 915.262 307.782 915.047 307.923L914.788 308.1C914.504 308.293 914.212 308.47 913.916 308.633C913.82 308.692 913.72 308.744 913.62 308.796C913.42 308.899 913.217 308.995 913.017 309.088L912.718 309.221C912.392 309.358 912.063 309.48 911.73 309.591C911.644 309.623 911.557 309.65 911.468 309.672C911.364 309.706 911.261 309.735 911.153 309.761L910.835 309.839C910.599 309.891 910.362 309.939 910.122 309.976L909.87 310.013C909.556 310.057 909.241 310.083 908.92 310.098H908.587H908.217C907.999 310.098 907.784 310.098 907.563 310.061H907.437H907.378H907.348H907.514H907.563C907.662 310.061 907.762 310.061 907.862 310.061C907.894 310.066 907.926 310.066 907.958 310.061H908.698C908.737 310.064 908.777 310.064 908.816 310.061H908.935H909.027H909.197C909.297 310.061 909.389 310.061 909.486 310.027L909.711 309.994L909.859 309.968H909.948L910.033 309.95H910.085C910.129 309.944 910.172 309.934 910.214 309.92H910.266H910.303C910.551 309.865 910.795 309.802 911.042 309.728C911.068 309.724 911.093 309.716 911.116 309.706H911.161C911.216 309.706 911.268 309.672 911.32 309.65H911.379L911.641 309.558L912.133 309.358H912.163C912.333 309.28 912.499 309.206 912.666 309.121C912.832 309.036 912.988 308.955 913.143 308.87C913.154 308.872 913.165 308.872 913.176 308.87C913.435 308.722 913.69 308.566 913.945 308.396C913.98 308.377 914.012 308.355 914.041 308.33C914.056 308.323 914.07 308.314 914.082 308.304L914.138 308.267L914.193 308.222C914.311 308.141 914.426 308.056 914.541 307.971C914.655 307.886 914.774 307.79 914.885 307.697C915.459 307.226 915.994 306.711 916.486 306.155L916.589 306.033L916.693 305.91C916.97 305.585 917.233 305.245 917.484 304.89C917.654 304.653 917.813 304.409 917.972 304.15C918.032 304.061 918.087 303.965 918.146 303.872L918.205 303.773L918.409 303.403L918.487 303.266C918.512 303.214 918.542 303.166 918.572 303.11C918.601 303.055 918.623 303.014 918.646 302.97C918.694 302.886 918.739 302.799 918.779 302.711C918.792 302.686 918.805 302.66 918.816 302.633L918.904 302.448C918.956 302.352 919.008 302.249 919.052 302.145C919.053 302.133 919.053 302.12 919.052 302.108C919.1 302.004 919.145 301.905 919.189 301.797L919.333 301.464C919.378 301.353 919.426 301.239 919.47 301.124C919.515 301.009 919.555 300.898 919.6 300.784C919.644 300.669 919.64 300.669 919.662 300.61C919.685 300.551 919.703 300.495 919.725 300.432L919.803 300.207C919.829 300.122 919.858 300.033 919.888 299.944C919.918 299.855 919.951 299.748 919.977 299.645C919.979 299.63 919.979 299.615 919.977 299.6C920.021 299.452 920.066 299.301 920.106 299.149C920.147 298.997 920.206 298.757 920.254 298.561C920.299 298.365 920.343 298.169 920.384 297.969C920.424 297.769 920.45 297.643 920.48 297.477C920.48 297.433 920.48 297.384 920.506 297.336C920.539 297.14 920.576 296.937 920.602 296.737L955.097 60.2383C955.16 59.7908 955.215 59.3395 955.249 58.8993C955.343 57.8151 955.343 56.7248 955.249 55.6406C955.252 55.6285 955.252 55.6156 955.249 55.6036C955.249 55.4852 955.223 55.3668 955.208 55.2337C955.193 55.1005 955.208 55.0783 955.182 55.0006C955.152 54.7898 955.123 54.5827 955.09 54.3792L954.979 53.7837C954.956 53.6838 954.934 53.584 954.916 53.4878C954.897 53.3916 954.868 53.288 954.846 53.1919C954.848 53.1648 954.848 53.1376 954.846 53.1105C954.846 53.0402 954.809 52.9736 954.79 52.9034C954.772 52.8513 954.757 52.7982 954.746 52.7443C954.746 52.7073 954.746 52.6703 954.712 52.6333L954.627 52.3485C954.542 52.0674 954.446 51.7937 954.346 51.5237C954.313 51.4386 954.28 51.3535 954.25 51.2684L954.198 51.1464C954.18 51.0946 954.158 51.0428 954.136 50.9947C954.099 50.9096 954.065 50.8246 954.025 50.7395C953.951 50.573 953.873 50.4066 953.792 50.2438C953.751 50.1587 953.707 50.0737 953.662 49.9886C953.618 49.9035 953.573 49.8258 953.529 49.7482C953.508 49.7038 953.484 49.6606 953.459 49.6187C953.414 49.5373 953.366 49.4596 953.318 49.3783L953.218 49.2118L953.122 49.0676L953.085 49.0084C953.045 48.9455 953.004 48.8826 952.96 48.8197C952.951 48.8041 952.941 48.7892 952.93 48.7753C952.856 48.6681 952.778 48.5571 952.697 48.4498L952.608 48.3278L952.549 48.2501C952.52 48.2103 952.489 48.172 952.457 48.1354L952.32 47.9616L952.213 47.8358L952.035 47.6324L951.935 47.5251C951.898 47.4807 951.858 47.4363 951.817 47.3956L951.673 47.2477L951.536 47.1108L951.484 47.0627L951.336 46.9259L951.17 46.7705L951.099 46.7113L950.94 46.5745L950.903 46.5486C950.837 46.4931 950.767 46.4339 950.696 46.3821C950.567 46.2823 950.441 46.1898 950.308 46.0936H950.282C950.077 45.9472 949.865 45.8114 949.646 45.6867C949.576 45.6534 949.509 45.6128 949.443 45.5795L949.202 45.45L948.98 45.3464H948.947L948.77 45.2651C948.214 45.0203 947.636 44.832 947.043 44.7028H947.009L946.836 44.6658L946.71 44.6436L946.488 44.6066C946.355 44.5808 946.222 44.5623 946.089 44.5475H946.022H945.774H945.623H945.342C945.127 44.5475 944.913 44.5475 944.691 44.5475L873.101 46.7409C872.912 46.7409 872.731 46.7409 872.538 46.7816L872.269 46.8112C866.592 47.551 861.296 54.0389 860.172 61.7512L828.868 275.683C828.675 276.994 828.607 278.32 828.665 279.644C828.665 279.644 828.665 279.667 828.665 279.674C828.665 279.778 828.665 279.881 828.665 279.981C828.665 280.081 828.665 280.159 828.665 280.251C828.663 280.261 828.663 280.271 828.665 280.281C828.665 280.366 828.665 280.447 828.684 280.532C828.684 280.532 828.684 280.558 828.684 280.569C828.682 280.588 828.682 280.606 828.684 280.625C828.684 280.687 828.684 280.747 828.702 280.81C828.704 280.828 828.704 280.847 828.702 280.865C828.702 280.865 828.702 280.865 828.702 280.887C828.702 280.98 828.721 281.076 828.735 281.168C828.75 281.261 828.735 281.283 828.754 281.335V281.412C828.754 281.505 828.78 281.594 828.791 281.682C828.791 281.775 828.817 281.864 828.835 281.952C828.854 282.041 828.88 282.241 828.909 282.382C828.909 282.437 828.928 282.489 828.939 282.541V282.618C828.939 282.685 828.965 282.755 828.979 282.822C828.983 282.849 828.99 282.877 828.998 282.903C829.016 282.999 829.039 283.095 829.061 283.192C829.083 283.288 829.087 283.299 829.098 283.354C829.109 283.41 829.146 283.539 829.168 283.628L829.201 283.75C829.201 283.802 829.227 283.854 829.238 283.902C829.249 283.95 829.238 283.935 829.238 283.954L829.26 284.028C829.26 284.087 829.294 284.142 829.309 284.198L829.379 284.434C829.475 284.753 829.582 285.071 829.697 285.374C829.697 285.422 829.73 285.466 829.745 285.507L829.83 285.733L829.885 285.873C830.348 287.034 830.957 288.13 831.697 289.136C831.746 289.202 831.797 289.265 831.845 289.328C832.056 289.598 832.271 289.857 832.496 290.101L832.53 290.138L832.57 290.179L832.652 290.268L832.803 290.423L832.836 290.453L832.962 290.575C833.081 290.686 833.195 290.793 833.332 290.9L833.373 290.937C833.406 290.959 833.432 290.985 833.465 291.011L833.554 291.089L833.683 291.192C833.802 291.289 833.924 291.385 834.053 291.474L834.123 291.522C834.224 291.596 834.328 291.666 834.434 291.732L834.508 291.784L834.822 291.973L834.904 292.017L834.948 292.043C835.103 292.132 835.262 292.213 835.425 292.291L835.484 292.321L835.536 292.343L835.621 292.383H835.64C835.695 292.413 835.754 292.435 835.817 292.461L835.728 292.428L835.625 292.391C835.444 292.313 835.255 292.236 835.1 292.147C834.026 291.596 833.054 290.868 832.223 289.994L832.038 289.802C831.886 289.635 831.734 289.465 831.59 289.287L831.394 289.043C831.058 288.622 830.748 288.179 830.466 287.719C830.41 287.637 830.358 287.552 830.311 287.464C830.155 287.209 830.007 286.95 829.867 286.683L829.734 286.417L829.582 286.106L829.438 285.796L829.342 285.585L829.227 285.319C829.005 284.782 828.806 284.227 828.628 283.661C828.595 283.562 828.565 283.458 828.536 283.354C828.44 283.04 828.354 282.718 828.277 282.389C828.247 282.274 828.218 282.156 828.195 282.019C827.993 281.124 827.85 280.218 827.766 279.304C827.766 279.178 827.744 279.053 827.733 278.934C827.685 278.294 827.663 277.651 827.67 277C827.67 276.87 827.67 276.737 827.67 276.608C827.695 275.678 827.774 274.75 827.907 273.83L858.66 62.9903L858.885 61.4479C858.908 61.2876 858.933 61.1285 858.963 60.9707C858.963 60.8524 859 60.734 859.022 60.6008C859.07 60.3382 859.122 60.083 859.178 59.8278C859.207 59.6946 859.237 59.5577 859.27 59.4283C859.27 59.358 859.303 59.2877 859.318 59.2174C859.333 59.1472 859.355 59.051 859.381 58.9659C859.407 58.8808 859.451 58.6996 859.488 58.5627C859.55 58.3309 859.616 58.1016 859.688 57.8747C859.721 57.7601 859.758 57.6491 859.795 57.5381C859.902 57.1978 860.017 56.8686 860.143 56.5394C860.18 56.4358 860.224 56.3323 860.261 56.2287L860.413 55.8588L860.546 55.5444C860.579 55.4556 860.616 55.3742 860.653 55.2892L860.79 54.9859L860.897 54.7565C860.953 54.6456 861.001 54.5346 861.06 54.4199C861.152 54.2313 861.252 54.05 861.352 53.8429L861.511 53.5507C861.57 53.4397 861.633 53.3287 861.696 53.2178C862.127 52.4559 862.603 51.7209 863.123 51.0169C863.197 50.917 863.268 50.8209 863.345 50.7247L863.6 50.3955C863.745 50.2216 863.885 50.0478 864.029 49.8776L864.506 49.345C864.669 49.1711 864.832 49.001 864.998 48.8345L865.25 48.5867C865.416 48.4313 865.586 48.2723 865.76 48.1169C865.934 47.9616 866.104 47.821 866.281 47.6768C866.459 47.5325 866.651 47.3956 866.814 47.2625L867.088 47.0664C867.176 46.9999 867.269 46.9407 867.358 46.8778L867.635 46.6965L867.916 46.519C868.097 46.408 868.286 46.3008 868.478 46.1972L868.748 46.0529C868.756 46.0501 868.766 46.0501 868.774 46.0529L869.048 45.9124C869.14 45.8754 869.229 45.831 869.318 45.7866L869.628 45.6571L869.917 45.5425L870.212 45.4352C870.312 45.3982 870.408 45.3649 870.508 45.3353C870.708 45.2688 870.904 45.2096 871.104 45.1615L871.396 45.0912C871.61 45.0444 871.825 45.0037 872.039 44.9691C872.209 44.9432 872.379 44.9247 872.55 44.9026L872.86 44.8767H873.171L944.879 42.6166H945.538C945.763 42.6166 945.985 42.6166 946.207 42.6573C946.322 42.6573 946.433 42.6795 946.54 42.6943C946.647 42.7091 946.765 42.7202 946.876 42.7387L947.202 42.7942L947.527 42.8607L947.845 42.9384L948.134 43.0124L948.196 43.0309C948.285 43.0605 948.378 43.0864 948.466 43.1197C948.555 43.153 948.714 43.201 948.836 43.2491L949.084 43.3453C949.269 43.4193 949.454 43.497 949.635 43.5857C949.757 43.6375 949.875 43.7004 950.005 43.7633C950.134 43.8262 950.175 43.8558 950.264 43.9038C950.352 43.9519 950.449 44.0111 950.545 44.0666L950.818 44.2368C951.476 44.6605 952.084 45.1568 952.63 45.7163C952.702 45.7817 952.77 45.8508 952.834 45.9235C953.08 46.1801 953.314 46.4493 953.533 46.7298C953.633 46.8519 953.729 46.9814 953.817 47.0997C954.208 47.631 954.555 48.1925 954.857 48.779C954.916 48.8863 954.971 48.9899 955.019 49.0972C955.13 49.3191 955.234 49.5447 955.334 49.7741C955.385 49.8924 955.434 50.0071 955.478 50.1255C955.563 50.3252 955.641 50.5323 955.711 50.7358C955.748 50.8393 955.785 50.9466 955.818 51.0502C955.881 51.2499 955.948 51.4497 956.003 51.6568C956.033 51.753 956.062 51.8529 956.084 51.9564C956.181 52.2967 956.262 52.6444 956.332 52.9995C956.354 53.0932 956.373 53.1857 956.388 53.2769C956.454 53.6468 956.51 53.9908 956.558 54.3533C956.576 54.4939 956.591 54.6271 956.602 54.7602C956.688 55.5611 956.724 56.3666 956.709 57.1719C956.713 57.2533 956.713 57.3421 956.709 57.4345Z" fill="#C7C7C7"/>
<path d="M835.998 292.55L835.728 292.443C835.551 292.369 835.358 292.284 835.199 292.199C834.117 291.649 833.137 290.918 832.3 290.038L832.119 289.85C831.967 289.68 831.819 289.513 831.671 289.336L831.475 289.092C831.14 288.668 830.829 288.226 830.543 287.767L830.388 287.516C830.236 287.261 830.092 286.998 829.952 286.732C829.904 286.647 829.859 286.558 829.815 286.465L829.663 286.155L829.519 285.84C829.486 285.774 829.452 285.703 829.423 285.633C829.393 285.563 829.345 285.456 829.312 285.363C829.088 284.83 828.887 284.279 828.709 283.71C828.676 283.61 828.646 283.506 828.617 283.406C828.521 283.088 828.436 282.766 828.358 282.441C828.328 282.322 828.299 282.204 828.273 282.071C828.074 281.177 827.932 280.272 827.848 279.36C827.848 279.23 827.822 279.104 827.814 278.99C827.766 278.354 827.744 277.706 827.751 277.055C827.751 276.926 827.751 276.793 827.751 276.663C827.778 275.733 827.857 274.806 827.988 273.885L858.741 63.046C860.006 54.3683 866.052 47.1109 872.453 46.5117C866.692 47.0998 861.248 53.6581 860.105 61.4813L828.864 275.683C827.762 283.251 830.891 290.486 835.998 292.55Z" fill="url(#paint3_linear_480_2687)"/>
<path d="M956.229 61.7921L922.207 295.195C921.941 297.035 921.444 298.835 920.727 300.551C920.676 300.677 920.624 300.802 920.568 300.921C920.513 301.039 920.457 301.165 920.398 301.291C920.339 301.417 920.313 301.476 920.269 301.564C920.136 301.834 919.999 302.101 919.858 302.36C919.792 302.474 919.729 302.593 919.666 302.704C919.603 302.815 919.481 303.018 919.385 303.173C919.289 303.329 919.259 303.381 919.193 303.48C919.126 303.58 919.056 303.695 918.982 303.802C918.786 304.095 918.583 304.383 918.368 304.66C918.302 304.749 918.235 304.838 918.165 304.923C918.094 305.008 918.009 305.115 917.928 305.212C917.847 305.308 917.769 305.404 917.691 305.493C917.614 305.581 917.529 305.678 917.447 305.766C917.366 305.855 917.281 305.948 917.196 306.036C917.031 306.214 916.861 306.384 916.685 306.547C916.419 306.802 916.149 307.043 915.868 307.287L915.617 307.486C915.424 307.638 915.247 307.782 915.032 307.927L914.774 308.1C914.489 308.293 914.197 308.47 913.901 308.633C913.805 308.689 913.705 308.74 913.605 308.792C913.405 308.899 913.206 308.996 913.002 309.088C912.902 309.132 912.803 309.181 912.703 309.218C912.381 309.36 912.051 309.483 911.715 309.587C911.627 309.621 911.542 309.643 911.453 309.669C911.364 309.695 911.246 309.732 911.138 309.758L910.82 309.835C910.584 309.887 910.347 309.935 910.107 309.972L909.855 310.009C909.541 310.054 909.223 310.079 908.905 310.094H908.572H908.202C907.984 310.094 907.766 310.076 907.548 310.057L907.215 310.02C913.501 310.675 919.4 304.967 920.616 296.612L955.112 60.1165C956.351 51.6089 952.116 44.7733 945.63 44.322C952.856 44.7363 957.608 52.3339 956.229 61.7921Z" fill="url(#paint4_linear_480_2687)"/>
<path d="M922.188 295.187L921.936 296.9C920.494 306.791 913.146 313.312 905.665 311.463L836.882 294.47C830.532 292.901 826.49 284.372 827.792 275.435L828.018 273.889C827.886 274.81 827.807 275.737 827.781 276.667C827.781 276.796 827.781 276.929 827.781 277.059C827.781 277.71 827.781 278.357 827.844 278.993C827.844 279.119 827.844 279.245 827.877 279.363C827.961 280.275 828.103 281.181 828.302 282.075C828.328 282.193 828.358 282.311 828.387 282.445C828.465 282.77 828.55 283.092 828.646 283.41C828.676 283.51 828.705 283.613 828.739 283.713C828.916 284.283 829.117 284.834 829.341 285.367C829.375 285.459 829.415 285.548 829.452 285.637C829.489 285.726 829.515 285.777 829.549 285.844L829.693 286.158L829.844 286.469C829.889 286.561 829.933 286.65 829.981 286.735C830.122 287.002 830.266 287.264 830.418 287.52L830.573 287.771C830.859 288.229 831.17 288.671 831.505 289.095L831.701 289.339C831.849 289.517 831.997 289.683 832.148 289.854L832.329 290.042C833.16 290.918 834.133 291.648 835.206 292.199C835.38 292.284 835.558 292.369 835.735 292.443C835.917 292.517 836.105 292.587 836.283 292.654L836.567 292.75C836.745 292.805 836.937 292.857 837.107 292.901L905.917 309.776C906.129 309.828 906.339 309.872 906.549 309.909L906.885 309.965C907.067 309.991 907.255 310.013 907.425 310.028H907.551C907.769 310.05 907.987 310.061 908.206 310.064H908.575H908.908C909.226 310.064 909.544 310.024 909.859 309.979L910.11 309.942C910.35 309.905 910.587 309.857 910.824 309.806L911.142 309.728C911.249 309.702 911.353 309.672 911.456 309.639C911.56 309.606 911.63 309.591 911.719 309.558C912.055 309.454 912.384 309.33 912.706 309.188C912.806 309.151 912.906 309.106 913.006 309.058C913.209 308.966 913.409 308.87 913.608 308.762C913.708 308.714 913.808 308.659 913.904 308.603C914.2 308.437 914.492 308.263 914.777 308.071L915.036 307.897C915.232 307.753 915.428 307.608 915.62 307.457C915.705 307.394 915.787 307.327 915.872 307.257C916.153 307.024 916.423 306.784 916.689 306.517C916.863 306.354 917.036 306.184 917.199 306.007C917.284 305.918 917.369 305.829 917.451 305.737C917.532 305.644 917.617 305.559 917.695 305.463C917.772 305.367 917.857 305.278 917.931 305.182C918.005 305.086 918.09 304.993 918.168 304.893C918.246 304.794 918.305 304.72 918.371 304.631C918.586 304.353 918.789 304.065 918.985 303.773C919.059 303.664 919.13 303.557 919.196 303.451C919.263 303.351 919.326 303.247 919.388 303.144C919.451 303.04 919.577 302.833 919.669 302.674C919.762 302.515 919.799 302.448 919.862 302.33C920.002 302.071 920.139 301.805 920.272 301.535C920.317 301.446 920.361 301.354 920.402 301.261C920.442 301.169 920.516 301.017 920.572 300.891C920.627 300.765 920.679 300.643 920.731 300.521C921.438 298.811 921.928 297.019 922.188 295.187Z" fill="url(#paint5_linear_480_2687)"/>
<path d="M956.48 60.0794L956.228 61.792C957.586 52.4818 953.007 44.9729 945.963 44.333L945.626 44.3071H945.282C945.068 44.3071 944.857 44.3071 944.635 44.3071L873.045 46.5043C872.856 46.5043 872.675 46.5043 872.483 46.5376C866.082 47.1368 860.035 54.3941 858.771 63.0718L858.996 61.5257C859.018 61.3654 859.044 61.2063 859.074 61.0485C859.074 60.9301 859.111 60.8118 859.133 60.6786C859.181 60.4197 859.229 60.1607 859.288 59.9055L859.377 59.506C859.395 59.4358 859.41 59.3692 859.429 59.2952C859.447 59.2212 859.469 59.1287 859.492 59.0437C859.514 58.9586 859.562 58.7773 859.599 58.6442C859.662 58.4112 859.728 58.1818 859.799 57.9525C859.832 57.8378 859.869 57.7268 859.906 57.6159C860.013 57.2756 860.128 56.9464 860.253 56.6172C860.294 56.5136 860.335 56.41 860.372 56.3065C860.409 56.2029 860.472 56.0512 860.523 55.9366L860.657 55.6259C860.693 55.5408 860.727 55.4557 860.767 55.3706L860.901 55.0636C860.938 54.9859 860.971 54.912 861.008 54.838L861.171 54.5051C861.263 54.309 861.363 54.1167 861.463 53.9243C861.514 53.8282 861.566 53.732 861.622 53.6358C861.677 53.5397 861.744 53.4102 861.807 53.2992C862.237 52.5373 862.714 51.8024 863.234 51.0984C863.308 51.0022 863.378 50.9023 863.456 50.8061C863.534 50.71 863.622 50.5879 863.711 50.4806C863.852 50.3031 863.996 50.1292 864.14 49.9591L864.617 49.4264C864.78 49.2526 864.943 49.0824 865.109 48.916L865.36 48.6719C865.527 48.5091 865.697 48.3537 865.871 48.1984C866.045 48.043 866.215 47.9025 866.392 47.7582C866.57 47.614 866.762 47.4771 866.925 47.3439L867.198 47.1479C867.287 47.0813 867.38 47.0221 867.468 46.9593L867.746 46.778L868.027 46.6005C868.212 46.4895 868.396 46.3822 868.589 46.2786L868.859 46.1344H868.885L869.158 46.0012L869.428 45.8718L869.739 45.7423L870.027 45.6276L870.323 45.5204C870.419 45.4834 870.519 45.4501 870.619 45.4205C870.815 45.3539 871.015 45.2984 871.214 45.2466L871.51 45.1764C871.721 45.1283 871.936 45.0876 872.15 45.0543C872.364 45.021 872.49 45.0062 872.657 44.9877L872.971 44.9618H873.282L944.879 42.6167H945.537C945.763 42.6167 945.985 42.6167 946.207 42.6537L946.54 42.6907L946.872 42.7388C946.983 42.7388 947.094 42.7758 947.201 42.7942L947.523 42.8608L947.841 42.9385L948.13 43.0162H948.193C948.281 43.0458 948.374 43.0717 948.463 43.105C948.551 43.1383 948.714 43.1863 948.832 43.2344L949.08 43.3306C949.265 43.4046 949.45 43.4859 949.627 43.571C949.753 43.6228 949.871 43.6857 949.997 43.7486C950.123 43.8115 950.171 43.841 950.256 43.8891C950.341 43.9372 950.445 43.9927 950.537 44.0519L950.811 44.222C951.469 44.6446 952.077 45.141 952.623 45.7016C952.695 45.766 952.763 45.8352 952.826 45.9087C953.07 46.164 953.303 46.434 953.525 46.7151C953.625 46.8409 953.721 46.9666 953.814 47.085C954.202 47.6172 954.548 48.1787 954.849 48.7643C954.908 48.8716 954.96 48.9752 955.012 49.0824C955.126 49.3081 955.23 49.5337 955.326 49.7593C955.378 49.874 955.426 49.9924 955.47 50.1107C955.555 50.3105 955.629 50.5176 955.703 50.7211C955.74 50.8283 955.774 50.9319 955.811 51.0355C955.873 51.2352 955.94 51.435 955.995 51.6421C956.025 51.742 956.055 51.8381 956.077 51.9417C956.173 52.282 956.254 52.6297 956.328 52.9848C956.328 53.0773 956.362 53.1698 956.38 53.2622C956.447 53.6321 956.502 53.9761 956.546 54.3423C956.546 54.4755 956.583 54.6086 956.594 54.7455C956.678 55.5466 956.715 56.3518 956.705 57.1572C956.705 57.2423 956.705 57.3311 956.705 57.4235C956.705 57.516 956.705 57.7121 956.705 57.8563C956.705 58.0006 956.705 58.1448 956.68 58.2928C956.654 58.4407 956.657 58.5887 956.646 58.733C956.62 59.0067 956.591 59.2767 956.558 59.5504C956.533 59.7304 956.507 59.9068 956.48 60.0794Z" fill="url(#paint6_linear_480_2687)"/>
<path d="M945.282 44.2922C945.071 44.2922 944.857 44.2922 944.635 44.2922L873.045 46.4894C872.856 46.4894 872.675 46.4894 872.483 46.5227C866.692 47.0997 861.248 53.6579 860.105 61.4812L828.864 275.683C827.755 283.384 831.002 290.741 836.261 292.654L836.545 292.75C836.723 292.805 836.915 292.857 837.085 292.901L905.894 309.776C906.106 309.828 906.317 309.872 906.527 309.909L906.863 309.965C913.283 310.86 919.359 305.1 920.598 296.597L955.093 60.1015C956.369 51.446 951.961 44.5216 945.282 44.2922ZM919.573 296.364C918.464 304.046 912.917 309.417 907.022 308.603C906.919 308.603 906.812 308.574 906.704 308.552C906.512 308.518 906.334 308.478 906.124 308.43L837.303 291.655C837.133 291.614 836.967 291.566 836.8 291.514L836.545 291.429C831.697 289.68 828.735 282.859 829.752 275.894L861.008 61.4812C862.051 54.3311 866.987 48.3167 872.316 47.7766H872.342C872.512 47.7766 872.686 47.7507 872.86 47.747L944.435 45.646C944.635 45.646 944.835 45.646 945.031 45.646C951.18 45.8754 955.145 52.2302 953.995 60.1163L919.573 296.364Z" fill="#404040"/>
<path d="M953.995 60.2126L919.54 296.452C919.332 297.862 918.96 299.243 918.431 300.566C918.043 301.553 917.559 302.5 916.985 303.392C916.87 303.569 916.748 303.743 916.615 303.91C916.43 304.165 916.245 304.409 916.049 304.649C915.518 305.299 914.924 305.896 914.278 306.432C915.696 304.23 916.62 301.747 916.985 299.153L917.38 296.434C917.41 296.275 917.436 296.112 917.458 295.949L951.85 60.2199C951.872 60.0535 951.894 59.887 951.913 59.7243L952.301 57.0648C952.711 54.5071 952.539 51.8899 951.798 49.408C953.725 52.0601 954.623 55.9329 953.995 60.2126Z" fill="url(#paint7_linear_480_2687)"/>
<path d="M944.794 46.9963H944.746C944.58 46.9963 944.409 46.9963 944.239 46.9963L872.675 48.9975C872.523 48.9975 872.372 48.9975 872.224 49.0197H872.179H872.157C867.35 49.5153 862.853 54.9749 861.906 61.4592L830.606 276.079C829.682 282.419 832.374 288.607 836.778 290.19L836.989 290.26H837.015C837.163 290.305 837.314 290.349 837.466 290.386L906.305 307.091C906.479 307.131 906.653 307.165 906.826 307.194H906.86C906.945 307.213 907.031 307.226 907.118 307.235C912.462 307.975 917.473 303.088 918.501 296.138L952.922 60.1461C953.965 52.9738 950.371 47.2109 944.794 46.9963ZM915.742 295.491C915.47 297.549 914.627 299.49 913.309 301.095C913.242 301.172 913.176 301.243 913.109 301.317C912.91 301.536 912.699 301.745 912.477 301.942C912.285 302.112 912.085 302.275 911.882 302.423C911.629 302.606 911.365 302.773 911.09 302.922C910.824 303.066 910.547 303.19 910.262 303.292C910.121 303.347 909.981 303.392 909.837 303.436C909.694 303.48 909.55 303.517 909.404 303.547C909.11 303.61 908.812 303.651 908.513 303.669C908.15 303.687 907.786 303.673 907.425 303.628H907.326H907.277H907.244H907.211H907.118H907.022L906.83 303.588L837.947 287.116L837.78 287.072L837.614 287.02H837.592H837.566H837.525L837.44 286.987C834.204 285.837 832.219 281.294 832.899 276.63L864.28 61.4592C864.972 56.7245 868.234 52.7408 871.751 52.3413H871.81H871.902C871.999 52.3362 872.097 52.3362 872.194 52.3413L943.718 50.5917H944.132C944.157 50.588 944.181 50.588 944.206 50.5917C944.28 50.594 944.354 50.6002 944.428 50.6102H944.528L944.724 50.6361C944.805 50.6361 944.883 50.6583 944.96 50.6731C945.072 50.6908 945.184 50.7143 945.293 50.7434L945.356 50.7619L945.622 50.8395L945.992 50.9801C946.095 51.0172 946.195 51.0604 946.292 51.1096C946.399 51.1579 946.504 51.2122 946.606 51.2723C946.814 51.3808 947.015 51.5044 947.205 51.6422C947.38 51.7696 947.548 51.9067 947.708 52.0528C947.742 52.0892 947.778 52.1237 947.815 52.1564L948.011 52.3487C948.096 52.4338 948.174 52.5262 948.255 52.6187C948.411 52.8074 948.562 52.9886 948.703 53.2069C948.778 53.3078 948.846 53.4141 948.906 53.525C948.973 53.6335 949.036 53.7444 949.095 53.8579C949.349 54.3218 949.556 54.81 949.712 55.3152C949.797 55.5779 949.864 55.8479 949.927 56.1216C949.99 56.3953 950.038 56.6765 950.078 56.9687C950.097 57.1129 950.112 57.2572 950.127 57.4014C950.152 57.7233 950.171 58.0451 950.171 58.3743C950.171 58.5074 950.171 58.6369 950.171 58.77C950.159 59.248 950.118 59.7248 950.049 60.1978L915.742 295.491Z" fill="black"/>
<path d="M882.815 56.2372C882.815 56.1741 882.789 56.1146 882.778 56.0515C882.777 56.0292 882.777 56.0069 882.778 55.9846C882.782 56.0701 882.796 56.1555 882.815 56.2372Z" fill="black"/>
<path d="M930.482 55.0193C930.47 55.0433 930.459 55.068 930.449 55.0933C930.416 55.1561 930.386 55.2227 930.35 55.2893L930.482 55.0193Z" fill="black"/>
<path d="M932.724 50.8098C932.095 50.8653 931.503 51.4904 931.326 52.2894C931.326 52.3597 931.3 52.43 931.289 52.5002C931.237 52.7887 931.171 53.0773 931.093 53.3621C931.063 53.462 931.037 53.5581 931.008 53.6543C930.971 53.7727 930.934 53.8873 930.893 54.002C930.852 54.1167 930.819 54.2091 930.782 54.3127L930.753 54.3867L930.723 54.4644C930.723 54.4866 930.723 54.5051 930.697 54.5272C930.681 54.5609 930.668 54.5955 930.656 54.6308C930.638 54.6678 930.623 54.7085 930.605 54.7455C930.568 54.8417 930.523 54.9341 930.483 55.0266L930.35 55.2966C930.352 55.3089 930.352 55.3214 930.35 55.3336C930.313 55.4113 930.272 55.4853 930.231 55.5593C930.191 55.6332 930.161 55.6887 930.124 55.7516C930.114 55.7733 930.103 55.7943 930.091 55.8145L930.032 55.9106C930.008 55.9551 929.982 55.9983 929.954 56.0401V56.0771C929.944 56.0942 929.933 56.1103 929.921 56.1252C929.902 56.1548 929.887 56.1844 929.869 56.2103C929.85 56.2362 929.828 56.2768 929.806 56.3064L929.754 56.3878L929.721 56.4322L929.658 56.5284C929.644 56.5509 929.628 56.5719 929.61 56.5913C929.591 56.6267 929.569 56.6602 929.543 56.6911V56.7133C929.543 56.7133 929.543 56.7133 929.543 56.7318L929.469 56.8354L929.44 56.8761L929.355 56.987L929.244 57.1239C929.211 57.1727 929.174 57.2185 929.133 57.2608C929.111 57.2906 929.088 57.319 929.063 57.3458C929.036 57.3784 929.008 57.4093 928.978 57.4383C928.955 57.4705 928.929 57.5002 928.9 57.5271C928.855 57.5803 928.807 57.631 928.756 57.6787C928.722 57.7208 928.685 57.7604 928.645 57.7971L928.575 57.8674L928.408 58.0264L928.245 58.1744L928.146 58.2595C928.109 58.2935 928.071 58.3256 928.031 58.3556L927.92 58.4444L927.868 58.4888L927.68 58.6294C927.632 58.6688 927.581 58.7046 927.528 58.7366C927.468 58.7824 927.405 58.8244 927.339 58.8624L927.265 58.9142L927.125 58.9993C927.084 59.0261 927.042 59.0508 926.999 59.0732C926.962 59.0964 926.924 59.1174 926.885 59.1361L926.825 59.1694L926.774 59.1953C926.674 59.2471 926.581 59.2952 926.481 59.3359C926.382 59.3765 926.3 59.4172 926.211 59.4505C926.123 59.4838 926.012 59.5282 925.916 59.5578C925.718 59.6241 925.517 59.6784 925.313 59.7206C925.231 59.7206 925.146 59.7538 925.061 59.7649H925.01L924.795 59.7871L924.551 59.8093H924.381L887.094 60.3827H887.023C886.949 60.3827 886.876 60.3827 886.802 60.3827C886.738 60.3862 886.673 60.3862 886.609 60.3827H886.565C886.491 60.3827 886.417 60.3605 886.343 60.3494C886.17 60.3126 886 60.2656 885.833 60.2088C885.748 60.1829 885.67 60.1496 885.585 60.1163L885.367 60.0128C885.289 59.9758 885.215 59.9314 885.137 59.887L885.097 59.8611L885.052 59.8315C885.021 59.8161 884.991 59.7975 884.964 59.776L884.867 59.7095L884.764 59.6281C884.745 59.6155 884.728 59.6006 884.712 59.5837C884.662 59.5498 884.615 59.5114 884.572 59.469C884.532 59.4397 884.496 59.4062 884.464 59.3691L884.328 59.2397C884.315 59.2277 884.304 59.214 884.294 59.199C884.264 59.1747 884.237 59.1475 884.213 59.1176C884.184 59.0898 884.157 59.0602 884.132 59.0288L884.065 58.9512L883.958 58.8143L883.847 58.6664L883.802 58.6035C883.777 58.5679 883.753 58.5308 883.732 58.4925C883.698 58.4472 883.669 58.3989 883.643 58.3482C883.624 58.3243 883.608 58.2982 883.595 58.2706C883.577 58.241 883.558 58.2151 883.544 58.1855C883.528 58.1595 883.514 58.1323 883.503 58.1041C883.489 58.0835 883.478 58.0611 883.47 58.0375C883.436 57.971 883.403 57.9081 883.373 57.8415C883.356 57.8083 883.341 57.7736 883.329 57.7379C883.321 57.7268 883.315 57.7143 883.311 57.7009C883.311 57.6713 883.285 57.6381 883.27 57.6048V57.5863C883.272 57.579 883.272 57.5714 883.27 57.5641C883.255 57.536 883.244 57.5062 883.237 57.4753C883.226 57.4553 883.217 57.4342 883.211 57.4124C883.211 57.3878 883.2 57.3582 883.177 57.3236C883.175 57.3102 883.175 57.2964 883.177 57.283C883.166 57.259 883.156 57.2342 883.148 57.209C883.148 57.1794 883.129 57.1498 883.118 57.1165C883.107 57.0832 883.118 57.0684 883.092 57.0388C883.094 57.0228 883.094 57.0067 883.092 56.9907C883.092 56.9907 883.092 56.9685 883.092 56.9574C883.077 56.9176 883.065 56.8769 883.055 56.8354C883.055 56.8058 883.037 56.7799 883.03 56.7466C883.031 56.7269 883.031 56.7071 883.03 56.6874C883.03 56.6319 883 56.5691 882.985 56.5062C882.97 56.4433 882.952 56.3693 882.937 56.299V56.2805C882.935 56.2683 882.935 56.2558 882.937 56.2436C882.919 56.1622 882.904 56.0771 882.893 55.992C882.882 55.907 882.863 55.8182 882.856 55.7257C882.854 55.69 882.854 55.6542 882.856 55.6184V55.5186C882.854 55.5001 882.854 55.4815 882.856 55.4631V55.3891C882.856 55.3669 882.856 55.341 882.856 55.3225C882.856 55.2226 882.856 55.1265 882.837 55.0266C882.819 54.9267 882.837 54.8084 882.837 54.6974C882.837 54.6086 882.837 54.5162 882.837 54.42C882.841 54.1479 882.86 53.8763 882.893 53.6062C882.897 53.5381 882.904 53.4702 882.915 53.4028C882.967 52.663 882.597 52.0896 882.046 52.0638L932.724 50.8098Z" fill="black"/>
<path d="M886.783 60.4087C886.857 60.4087 886.931 60.4087 887.005 60.4087H886.879H886.75H886.605C886.665 60.4117 886.724 60.4117 886.783 60.4087Z" fill="black"/>
<path d="M924.899 59.802H924.74C924.692 59.8075 924.643 59.8075 924.595 59.802H924.458L924.703 59.7798L924.899 59.802Z" fill="black"/>
<path d="M882.733 55.718C882.735 55.6861 882.735 55.654 882.733 55.6221C882.732 55.654 882.732 55.6861 882.733 55.718Z" fill="black"/>
<path d="M882.815 56.2372C882.815 56.1741 882.789 56.1146 882.778 56.0515C882.777 56.0292 882.777 56.0069 882.778 55.9846C882.782 56.0701 882.796 56.1555 882.815 56.2372Z" fill="black"/>
<path d="M883.266 57.6935C883.247 57.6602 883.233 57.6195 883.214 57.5789V57.5974C883.24 57.6306 883.251 57.6639 883.266 57.6935Z" fill="black"/>
<path d="M883.429 58.0311C883.405 57.9918 883.384 57.9508 883.366 57.9085C883.352 57.8845 883.34 57.8597 883.329 57.8342C883.362 57.9011 883.396 57.9642 883.429 58.0311Z" fill="black"/>
<path d="M883.507 58.1784C883.489 58.1528 883.474 58.1254 883.462 58.0967C883.475 58.1251 883.49 58.1524 883.507 58.1784Z" fill="black"/>
<path d="M884.028 58.9438C883.991 58.9031 883.954 58.855 883.921 58.8106C883.897 58.7832 883.876 58.7534 883.858 58.7218C883.84 58.7025 883.824 58.6814 883.81 58.6589L883.921 58.8069L884.028 58.9438Z" fill="black"/>
<path d="M884.095 59.0215C884.12 59.0526 884.146 59.0821 884.175 59.1097L884.15 59.0876L884.095 59.0215Z" fill="black"/>
<path d="M884.441 59.3647L884.36 59.2949L884.309 59.2397L884.441 59.3647Z" fill="black"/>
<path d="M885.349 60.0023C885.286 59.9688 885.219 59.9391 885.156 59.8983L885.119 59.876C885.182 59.9354 885.271 59.98 885.349 60.0023Z" fill="black"/>
<path d="M885.552 60.1202C885.637 60.1535 885.714 60.1868 885.799 60.2127C885.743 60.1968 885.687 60.177 885.633 60.1535L885.552 60.1239L885.444 60.0721C885.406 60.0566 885.369 60.038 885.333 60.0166L885.552 60.1202Z" fill="black"/>
<path d="M886.324 60.3716C886.398 60.3716 886.472 60.3975 886.546 60.4049C886.48 60.4008 886.415 60.3909 886.35 60.3753C886.35 60.3753 886.332 60.3753 886.324 60.3753L886.239 60.3531C886.18 60.3435 886.122 60.3299 886.065 60.3124L885.847 60.2458H885.814C885.981 60.2977 886.152 60.3397 886.324 60.3716Z" fill="black"/>
<path d="M886.782 60.4087H886.697H886.605C886.664 60.4117 886.723 60.4117 886.782 60.4087Z" fill="black"/>
<path d="M924.381 59.8501H924.303L887.164 60.4234H887.094L924.381 59.8501Z" fill="black"/>
<path d="M924.684 59.8243L924.899 59.802H924.795H924.703L924.684 59.8243Z" fill="black"/>
<path d="M925.202 59.7502C925.406 59.708 925.607 59.6537 925.804 59.5874L925.76 59.6059L925.501 59.6799C925.436 59.7011 925.369 59.7172 925.302 59.728L925.202 59.7539H925.172C925.098 59.7539 925.024 59.7834 924.95 59.7908C925.035 59.7834 925.12 59.765 925.202 59.7502Z" fill="black"/>
<path d="M926.37 59.3655C926.325 59.3902 926.278 59.4112 926.23 59.4284L926.101 59.4838L926.001 59.5208L925.805 59.5874C925.901 59.5578 926.001 59.5208 926.101 59.4801C926.2 59.4395 926.278 59.4062 926.37 59.3655Z" fill="black"/>
<path d="M926.371 59.3654C926.47 59.3247 926.563 59.2766 926.663 59.2249L926.6 59.2618C926.525 59.3003 926.449 59.3349 926.371 59.3654Z" fill="black"/>
<path d="M927.587 58.6515L927.775 58.511L927.705 58.5702L927.587 58.6515Z" fill="black"/>
<path d="M928.056 58.2781L927.975 58.3521L927.942 58.3743C927.982 58.3442 928.02 58.3121 928.056 58.2781Z" fill="black"/>
<path d="M928.486 57.886L928.416 57.9563L928.319 58.0487C928.264 58.0968 928.212 58.1486 928.157 58.193L928.319 58.045L928.486 57.886Z" fill="black"/>
<path d="M929.047 57.2793C929.025 57.3091 929 57.3374 928.974 57.3638C928.999 57.3372 929.022 57.3089 929.044 57.2793H929.047Z" fill="black"/>
<path d="M929.276 56.998L929.214 57.0752L929.163 57.134L929.272 56.998H929.276Z" fill="black"/>
<path d="M929.484 56.7244L929.392 56.8464L929.465 56.7429C929.465 56.7429 929.476 56.7318 929.484 56.7244Z" fill="black"/>
<path d="M930.482 55.0193C930.47 55.0433 930.459 55.068 930.449 55.0933C930.416 55.1561 930.386 55.2227 930.35 55.2893L930.482 55.0193Z" fill="black"/>
<path d="M930.667 54.6235L930.623 54.7276C930.623 54.7015 930.638 54.6607 930.667 54.6235Z" fill="black"/>
<path d="M917.355 296.434L916.985 299.153C916.628 301.74 915.714 304.22 914.308 306.421C912.181 308.171 909.629 309.01 907.015 308.67C906.908 308.657 906.802 308.639 906.697 308.615C906.505 308.585 906.327 308.544 906.116 308.496L837.278 291.714C837.111 291.673 836.941 291.625 836.778 291.574L836.519 291.489C836.401 291.444 836.278 291.396 836.15 291.344C834.142 290.505 832.481 288.781 831.342 286.536C830.79 284.14 830.691 281.662 831.05 279.23L831.472 276.334C830.991 279.641 831.605 282.903 832.977 285.33C833.968 287.09 835.362 288.415 837.026 289.01C837.078 289.034 837.133 289.053 837.189 289.066H837.211H837.237C837.37 289.11 837.507 289.147 837.644 289.18L906.497 305.796C906.649 305.833 906.808 305.863 906.963 305.888H906.996H907.022C907.093 305.905 907.165 305.916 907.237 305.922C911.9 306.569 916.297 302.43 917.355 296.434Z" fill="url(#paint8_linear_480_2687)"/>
<path d="M954.006 60.1424V60.1165C955.156 52.2303 951.192 45.8756 945.042 45.6462C944.85 45.6462 944.65 45.6462 944.447 45.6462L872.871 47.7472C872.697 47.7472 872.524 47.7472 872.354 47.7768H872.328C872.109 47.799 871.891 47.8286 871.677 47.8693C869.48 48.2762 867.38 49.593 865.623 51.509C864.411 53.6945 863.605 56.0821 863.245 58.5555L862.824 61.4555C863.262 58.2931 864.673 55.3455 866.862 53.0219C868.371 51.4869 870.161 50.477 872.013 50.281H872.058H872.121C872.261 50.281 872.387 50.2625 872.49 50.2625L944.04 48.3539H944.539C949.413 48.5499 952.597 53.4732 951.894 59.6578L952.283 56.9983C952.689 54.4417 952.517 51.8265 951.78 49.3452C953.736 51.9862 954.635 55.8442 954.006 60.1424Z" fill="url(#paint9_linear_480_2687)"/>
<path d="M831.346 286.48C829.826 283.554 829.171 279.744 829.734 275.879L861.008 61.4813C861.522 57.771 863.123 54.2959 865.608 51.4941C864.398 53.6805 863.594 56.0678 863.234 58.5406L831.061 279.164C830.697 281.599 830.794 284.081 831.346 286.48Z" fill="url(#paint10_linear_480_2687)"/>
<path d="M954.01 60.1498L919.574 296.39C919.366 297.801 918.993 299.182 918.464 300.507C918.072 301.492 917.584 302.436 917.007 303.325C916.893 303.503 916.771 303.673 916.637 303.843C916.456 304.098 916.268 304.342 916.072 304.583C915.539 305.245 914.939 305.849 914.282 306.388V306.366C915.698 304.164 916.62 301.682 916.985 299.09L952.294 57.002C952.701 54.4454 952.529 51.8301 951.791 49.3489C953.74 51.9973 954.638 55.8516 954.01 60.1498Z" fill="url(#paint11_linear_480_2687)"/>
<path d="M911.497 53.9132L901.058 54.1388C900.795 54.1388 900.625 53.8725 900.688 53.5285L900.732 53.2104C900.743 53.0576 900.804 52.9126 900.905 52.7981C901.007 52.6836 901.144 52.6062 901.294 52.5779L911.738 52.3337C912.004 52.3337 912.181 52.6038 912.13 52.9515L912.082 53.2733C912.07 53.4301 912.007 53.5786 911.9 53.6947C911.794 53.8108 911.652 53.8878 911.497 53.9132Z" fill="url(#paint12_linear_480_2687)"/>
<path d="M950.068 60.1757L915.743 295.491C915.47 297.549 914.627 299.491 913.309 301.095C913.243 301.172 913.176 301.243 913.11 301.317C912.902 301.539 912.695 301.749 912.477 301.942C912.259 302.134 912.085 302.275 911.882 302.423C911.629 302.606 911.365 302.773 911.09 302.922C910.823 303.064 910.546 303.187 910.262 303.292C910.121 303.344 909.981 303.388 909.837 303.436C909.696 303.48 909.548 303.514 909.404 303.547C909.11 303.608 908.812 303.649 908.513 303.669C908.15 303.687 907.786 303.673 907.426 303.628H907.326H907.278H907.23L907.13 303.606H907.034L906.841 303.566L837.947 287.116L837.781 287.072L837.614 287.024H837.57H837.548L837.463 286.991C834.227 285.84 832.241 281.298 832.921 276.634L864.303 61.4629C864.994 56.7283 868.256 52.7445 871.773 52.345H871.832H871.925C872.022 52.3399 872.119 52.3399 872.217 52.345L881.898 52.1083C882.449 52.1342 882.819 52.7038 882.767 53.4473C882.767 53.4991 882.767 53.5509 882.749 53.6027V53.6248C882.749 53.6248 882.749 53.6248 882.749 53.6507C882.716 53.9208 882.697 54.1925 882.693 54.4645C882.693 54.5607 882.693 54.6532 882.693 54.7419C882.693 54.8529 882.693 54.9639 882.693 55.0711C882.693 55.1784 882.693 55.2672 882.712 55.367C882.712 55.367 882.712 55.4114 882.712 55.4336V55.5076C882.71 55.526 882.71 55.5447 882.712 55.5631V55.663C882.714 55.695 882.714 55.7271 882.712 55.7591C882.712 55.8516 882.734 55.9367 882.749 56.0255C882.763 56.1142 882.775 56.1956 882.793 56.277C882.791 56.2892 882.791 56.3017 882.793 56.314V56.3029C882.793 56.3732 882.826 56.4434 882.841 56.51C882.856 56.5766 882.871 56.6358 882.886 56.6913C882.887 56.711 882.887 56.7308 882.886 56.7505C882.886 56.7837 882.885 56.8096 882.911 56.8392C882.921 56.8807 882.933 56.9215 882.948 56.9613C882.948 56.9613 882.948 56.9835 882.948 56.9946C882.949 57.0106 882.949 57.0267 882.948 57.0427C882.948 57.0723 882.967 57.0982 882.974 57.1203C882.982 57.1425 882.993 57.1832 883.004 57.2128C883.012 57.2381 883.022 57.2628 883.033 57.2868C883.031 57.3003 883.031 57.314 883.033 57.3275C883.033 57.3595 883.045 57.3891 883.067 57.4163C883.073 57.4381 883.082 57.4591 883.093 57.4791C883.1 57.51 883.111 57.5399 883.126 57.5679C883.127 57.5752 883.127 57.5828 883.126 57.5901V57.6086C883.126 57.6419 883.152 57.6752 883.167 57.7048C883.17 57.7181 883.177 57.7307 883.185 57.7418C883.197 57.7775 883.212 57.8121 883.229 57.8453C883.238 57.8709 883.249 57.8957 883.263 57.9193C883.281 57.9615 883.302 58.0022 883.326 58.0414C883.334 58.0649 883.345 58.0873 883.359 58.108C883.37 58.1361 883.384 58.1634 883.4 58.1893C883.4 58.2189 883.433 58.2448 883.451 58.2744C883.464 58.3021 883.48 58.3281 883.499 58.3521C883.525 58.4027 883.554 58.451 883.588 58.4963C883.609 58.5347 883.633 58.5717 883.658 58.6073L883.703 58.6702C883.717 58.6927 883.733 58.7137 883.751 58.7331C883.77 58.7629 883.791 58.7913 883.814 58.8182C883.847 58.8625 883.884 58.9106 883.921 58.9513L883.988 59.029L884.043 59.0956L884.069 59.1178C884.093 59.1476 884.12 59.1749 884.15 59.1991C884.159 59.2141 884.171 59.2278 884.184 59.2398L884.235 59.2953L884.317 59.3656C884.349 59.4027 884.385 59.4362 884.424 59.4655C884.467 59.5078 884.514 59.5462 884.564 59.5801C884.58 59.597 884.597 59.6119 884.616 59.6245L884.72 59.7059L884.816 59.7725C884.844 59.7939 884.873 59.8125 884.905 59.828C884.917 59.8407 884.932 59.8508 884.949 59.8576L884.99 59.8834C885.002 59.893 885.016 59.9005 885.03 59.9056C885.093 59.9463 885.16 59.9759 885.223 60.0092C885.258 60.0306 885.295 60.0492 885.334 60.0647L885.441 60.1128L885.522 60.1424C885.576 60.1659 885.632 60.1857 885.689 60.2016H885.722L885.94 60.2681C885.997 60.2856 886.055 60.2992 886.114 60.3088H886.199C886.199 60.3088 886.199 60.3088 886.225 60.3088C886.289 60.3244 886.355 60.3343 886.421 60.3384H886.465H886.558H886.609H886.739C886.804 60.344 886.87 60.344 886.935 60.3384H887.005L924.144 59.7651H924.381C924.452 59.7706 924.524 59.7706 924.596 59.7651C924.644 59.7706 924.692 59.7706 924.74 59.7651H924.795H924.899H924.951C925.025 59.7651 925.099 59.7429 925.172 59.7281H925.202L925.302 59.7059C925.37 59.6951 925.436 59.6791 925.502 59.6578L925.76 59.5838L925.805 59.5653L926.001 59.4988L926.101 59.4618C926.145 59.4477 926.188 59.4304 926.23 59.41C926.279 59.3928 926.326 59.3718 926.371 59.3471C926.448 59.3226 926.525 59.2942 926.6 59.262C926.618 59.2557 926.636 59.2469 926.652 59.2361L926.703 59.2102L926.763 59.177C926.802 59.1582 926.84 59.1372 926.877 59.1141C926.92 59.0916 926.962 59.0669 927.003 59.0401L927.144 58.955L927.217 58.9032C927.283 58.8652 927.346 58.8232 927.406 58.7775C927.459 58.7455 927.51 58.7096 927.558 58.6702L927.669 58.5925L927.739 58.5333L927.791 58.4889L927.902 58.4002L927.935 58.378L928.016 58.304L928.116 58.2189C928.172 58.1745 928.223 58.1228 928.279 58.0747L928.375 57.9859L928.445 57.9156L928.515 57.8453C928.555 57.8086 928.592 57.7691 928.626 57.727C928.677 57.6792 928.725 57.6285 928.771 57.5753C928.799 57.5484 928.826 57.5187 928.848 57.4865C928.879 57.4575 928.907 57.4266 928.933 57.3941C928.959 57.3672 928.982 57.3388 929.004 57.309C929.045 57.2667 929.082 57.2209 929.115 57.1721L929.166 57.1129C929.188 57.0887 929.208 57.0627 929.226 57.0353L929.311 56.9243L929.34 56.8836L929.414 56.78C929.414 56.78 929.414 56.78 929.414 56.7615V56.7393C929.44 56.7084 929.462 56.675 929.481 56.6395C929.499 56.6202 929.515 56.5991 929.529 56.5766L929.592 56.4804L929.625 56.436L929.677 56.3547C929.699 56.3251 929.717 56.2918 929.74 56.2585C929.762 56.2252 929.773 56.203 929.791 56.1734C929.804 56.1586 929.815 56.1425 929.825 56.1253V56.0883C929.853 56.0465 929.879 56.0033 929.902 55.9589L929.961 55.8627C929.974 55.8425 929.985 55.8215 929.995 55.7998C930.032 55.7369 930.069 55.6741 930.102 55.6075C930.135 55.5409 930.183 55.4595 930.22 55.3818C930.222 55.3696 930.222 55.3571 930.22 55.3449L930.353 55.0748C930.394 54.9824 930.438 54.8899 930.475 54.7937L930.52 54.6901C930.531 54.6548 930.545 54.6202 930.561 54.5866C930.561 54.5644 930.561 54.5459 930.586 54.5237L930.616 54.446L930.646 54.372C930.683 54.2685 930.723 54.1649 930.756 54.0613C930.79 53.9578 930.834 53.832 930.871 53.7136C930.901 53.6175 930.927 53.5213 930.956 53.4214C931.034 53.1366 931.1 52.8481 931.152 52.5596C931.154 52.5498 931.154 52.5398 931.152 52.53V52.5078C931.152 52.456 931.152 52.4005 931.178 52.3487C931.356 51.5608 931.947 50.9357 932.576 50.8691L943.57 50.5991H944.081C944.147 50.6016 944.214 50.6078 944.28 50.6176H944.38L944.576 50.6435L944.813 50.6805L945.146 50.7508L945.208 50.7693L945.475 50.8469L945.844 50.9875L946.144 51.117C946.251 51.1688 946.358 51.2242 946.458 51.2797C946.665 51.3918 946.865 51.5153 947.057 51.6496C947.228 51.7791 947.398 51.9122 947.56 52.0602C947.594 52.0966 947.63 52.1312 947.668 52.1638L947.864 52.3561L948.108 52.6261C948.263 52.8148 948.415 52.996 948.555 53.2143C948.625 53.3178 948.696 53.4251 948.758 53.5324C948.821 53.6396 948.888 53.7506 948.947 53.8653C949.197 54.331 949.404 54.8189 949.565 55.3227C949.65 55.5853 949.716 55.8553 949.779 56.129C949.842 56.4027 949.89 56.6839 949.931 56.9761C949.949 57.1203 949.964 57.2646 949.979 57.4089C950.005 57.7307 950.023 58.0525 950.023 58.3817C950.023 58.5111 950.023 58.6443 950.023 58.7775C950.065 59.2423 950.08 59.7091 950.068 60.1757Z" fill="url(#paint13_linear_480_2687)"/>
</g>
<g opacity="0.25">
<mask id="mask0_480_2687" style="mask-type:alpha" maskUnits="userSpaceOnUse" x="364" y="0" width="465" height="353">
<rect x="827.833" y="0.5" width="351.479" height="463.166" transform="rotate(90 827.833 0.5)" fill="url(#paint14_linear_480_2687)" stroke="#6246E5"/>
</mask>
<g mask="url(#mask0_480_2687)">
<path d="M489.874 451.004C422.841 451.004 368.492 396.058 368.492 328.266C368.492 260.474 422.841 205.527 489.874 205.527C556.906 205.527 611.255 260.474 611.255 328.266C611.255 396.058 556.906 451.004 489.874 451.004Z" stroke="#E5E5E5"/>
<path d="M502.703 455.868C427.699 455.868 366.888 394.388 366.888 318.536C366.888 242.684 427.699 181.203 502.703 181.203C577.706 181.203 638.518 242.684 638.518 318.536C638.518 394.388 577.706 455.868 502.703 455.868Z" stroke="#E5E5E5"/>
<path d="M513.128 460.734C431.039 460.734 364.483 393.446 364.483 310.429C364.483 227.413 431.039 160.125 513.128 160.125C595.217 160.125 661.772 227.413 661.772 310.43C661.772 393.446 595.217 460.734 513.128 460.734Z" stroke="#E5E5E5"/>
<path d="M528.363 463.977C440.074 463.977 368.492 391.606 368.492 302.321C368.492 213.036 440.074 140.665 528.363 140.665C616.652 140.665 688.233 213.036 688.233 302.321C688.233 391.606 616.652 463.977 528.363 463.977Z" stroke="#E5E5E5"/>
<path d="M543.197 467.22C448.929 467.22 372.501 389.949 372.501 294.619C372.501 199.288 448.929 122.017 543.197 122.017C637.464 122.017 713.893 199.288 713.893 294.619C713.893 389.949 637.464 467.22 543.197 467.22Z" stroke="#E5E5E5"/>
<path d="M560.037 471.275C456.469 471.275 372.502 386.381 372.502 281.647C372.502 176.913 456.469 92.019 560.037 92.019C663.604 92.019 747.571 176.913 747.571 281.647C747.571 386.381 663.604 471.275 560.037 471.275Z" stroke="#E5E5E5"/>
</g>
</g>
<defs>
<linearGradient id="paint0_linear_480_2687" x1="783.5" y1="217.47" x2="1003.5" y2="217.47" gradientUnits="userSpaceOnUse">
<stop stop-color="#44A4BE"/>
<stop offset="1" stop-color="#D6F1FF"/>
</linearGradient>
<linearGradient id="paint1_linear_480_2687" x1="910.813" y1="177.273" x2="965.167" y2="177.273" gradientUnits="userSpaceOnUse">
<stop stop-color="#333333"/>
<stop offset="0.37" stop-color="#848484"/>
<stop offset="0.66" stop-color="#BFBFBF"/>
<stop offset="0.88" stop-color="#E3E3E3"/>
<stop offset="1" stop-color="#F1F1F1"/>
</linearGradient>
<linearGradient id="paint2_linear_480_2687" x1="891.812" y1="312.088" x2="895.499" y2="41.381" gradientUnits="userSpaceOnUse">
<stop stop-color="#F1F1F1"/>
<stop offset="0.43" stop-color="#EFEFEF"/>
<stop offset="0.62" stop-color="#E8E8E8"/>
<stop offset="0.76" stop-color="#DBDBDB"/>
<stop offset="0.88" stop-color="#C9C9C9"/>
<stop offset="0.98" stop-color="#B2B2B2"/>
<stop offset="1" stop-color="#ACACAC"/>
</linearGradient>
<linearGradient id="paint3_linear_480_2687" x1="843.725" y1="167.46" x2="845.091" y2="167.653" gradientUnits="userSpaceOnUse">
<stop stop-color="#666666"/>
<stop offset="0.06" stop-color="#727272"/>
<stop offset="0.33" stop-color="#A8A8A8"/>
<stop offset="0.57" stop-color="#D0D0D0"/>
<stop offset="0.76" stop-color="#E8E8E8"/>
<stop offset="0.87" stop-color="#F1F1F1"/>
<stop offset="0.95" stop-color="#F7F7F7"/>
<stop offset="1" stop-color="white"/>
</linearGradient>
<linearGradient id="paint4_linear_480_2687" x1="938.75" y1="178.193" x2="940.32" y2="178.415" gradientUnits="userSpaceOnUse">
<stop stop-color="white"/>
<stop offset="0.05" stop-color="#F7F7F7"/>
<stop offset="0.13" stop-color="#F1F1F1"/>
<stop offset="0.24" stop-color="#E8E8E8"/>
<stop offset="0.43" stop-color="#D0D0D0"/>
<stop offset="0.67" stop-color="#A8A8A8"/>
<stop offset="0.94" stop-color="#727272"/>
<stop offset="1" stop-color="#666666"/>
</linearGradient>
<linearGradient id="paint5_linear_480_2687" x1="872.71" y1="306.153" x2="875.657" y2="285.324" gradientUnits="userSpaceOnUse">
<stop stop-color="#F1F1F1"/>
<stop offset="0.12" stop-color="#E3E3E3"/>
<stop offset="0.34" stop-color="#BFBFBF"/>
<stop offset="0.63" stop-color="#848484"/>
<stop offset="1" stop-color="#333333"/>
</linearGradient>
<linearGradient id="paint6_linear_480_2687" x1="907.95" y1="61.706" x2="912.515" y2="29.4336" gradientUnits="userSpaceOnUse">
<stop stop-color="#333333"/>
<stop offset="0.07" stop-color="#4C4C4C"/>
<stop offset="0.25" stop-color="#828282"/>
<stop offset="0.42" stop-color="#AFAFAF"/>
<stop offset="0.59" stop-color="#D2D2D2"/>
<stop offset="0.74" stop-color="#EBEBEB"/>
<stop offset="0.89" stop-color="#FAFAFA"/>
<stop offset="1" stop-color="white"/>
</linearGradient>
<linearGradient id="paint7_linear_480_2687" x1="933.245" y1="177.242" x2="937.697" y2="177.872" gradientUnits="userSpaceOnUse">
<stop stop-color="#F0F0F0"/>
<stop offset="0.14" stop-color="#B7B7B7"/>
<stop offset="0.27" stop-color="#888888"/>
<stop offset="0.4" stop-color="#636363"/>
<stop offset="0.51" stop-color="#494949"/>
<stop offset="0.62" stop-color="#393939"/>
<stop offset="0.7" stop-color="#333333"/>
</linearGradient>
<linearGradient id="paint8_linear_480_2687" x1="830.709" y1="286.41" x2="917.715" y2="298.711" gradientUnits="userSpaceOnUse">
<stop/>
<stop offset="0.1" stop-color="#141414"/>
<stop offset="0.26" stop-color="#2C2C2C"/>
<stop offset="0.4" stop-color="#3B3B3B"/>
<stop offset="0.52" stop-color="#404040"/>
<stop offset="0.63" stop-color="#393939"/>
<stop offset="0.79" stop-color="#242424"/>
<stop offset="0.99" stop-color="#020202"/>
<stop offset="1"/>
</linearGradient>
<linearGradient id="paint9_linear_480_2687" x1="865.163" y1="47.4178" x2="954.365" y2="60.0292" gradientUnits="userSpaceOnUse">
<stop/>
<stop offset="0.1" stop-color="#141414"/>
<stop offset="0.26" stop-color="#2C2C2C"/>
<stop offset="0.4" stop-color="#3B3B3B"/>
<stop offset="0.52" stop-color="#404040"/>
<stop offset="0.63" stop-color="#393939"/>
<stop offset="0.79" stop-color="#242424"/>
<stop offset="0.99" stop-color="#020202"/>
<stop offset="1"/>
</linearGradient>
<linearGradient id="paint10_linear_480_2687" x1="845.656" y1="168.013" x2="847.878" y2="168.327" gradientUnits="userSpaceOnUse">
<stop stop-color="#404040"/>
<stop offset="0.64" stop-color="#1A1A1A"/>
<stop offset="1" stop-color="#0A0A0A"/>
</linearGradient>
<linearGradient id="paint11_linear_480_2687" x1="933.245" y1="177.194" x2="937.711" y2="177.825" gradientUnits="userSpaceOnUse">
<stop stop-color="#0A0A0A"/>
<stop offset="0.36" stop-color="#1A1A1A"/>
<stop offset="1" stop-color="#404040"/>
</linearGradient>
<linearGradient id="paint12_linear_480_2687" x1="901.251" y1="51.8798" x2="912.384" y2="53.4539" gradientUnits="userSpaceOnUse">
<stop stop-color="#333333"/>
<stop offset="0.09" stop-color="#2B2B2B"/>
<stop offset="0.29" stop-color="#1E1E1E"/>
<stop offset="0.48" stop-color="#1A1A1A"/>
<stop offset="0.79" stop-color="#1C1C1C"/>
<stop offset="0.9" stop-color="#232323"/>
<stop offset="0.98" stop-color="#2E2E2E"/>
<stop offset="1" stop-color="#333333"/>
</linearGradient>
<linearGradient id="paint13_linear_480_2687" x1="828.509" y1="83.619" x2="963.755" y2="263.373" gradientUnits="userSpaceOnUse">
<stop stop-color="#F2F3F4"/>
<stop offset="0.36" stop-color="#EDEEEF"/>
<stop offset="0.78" stop-color="#DFE0E0"/>
<stop offset="1" stop-color="#D5D6D6"/>
</linearGradient>
<linearGradient id="paint14_linear_480_2687" x1="1078.32" y1="13.0227" x2="839.498" y2="470.002" gradientUnits="userSpaceOnUse">
<stop stop-color="#747DEF"/>
<stop offset="1" stop-color="#5E3BE1"/>
</linearGradient>
<clipPath id="clip0_480_2687">
<rect width="140" height="270.359" fill="white" transform="translate(825.167 42.0767)"/>
</clipPath>
</defs>
</svg>
