<svg width="188" height="38" viewBox="0 0 188 38" fill="none" xmlns="http://www.w3.org/2000/svg">
<rect width="37.5" height="37.3195" rx="18.6597" fill="white"/>
<path d="M35 18.9537C35 10.2496 27.725 3.19385 18.752 3.19385C9.77503 3.19581 2.5 10.2496 2.5 18.9556C2.5 26.8199 8.4427 33.3392 16.2092 34.5217V23.5094H12.0863V18.9556H16.2133V15.4806C16.2133 11.5319 18.6403 9.35095 22.351 9.35095C24.1301 9.35095 25.9885 9.65832 25.9885 9.65832V13.5347H23.9392C21.9224 13.5347 21.2928 14.7504 21.2928 15.9975V18.9537H25.7976L25.0786 23.5074H21.2908V34.5197C29.0573 33.3372 35 26.8179 35 18.9537Z" fill="#3FA0BB"/>
<rect x="50" width="37.5" height="37.3195" rx="18.6597" fill="white"/>
<path d="M68.75 3.19385C59.7762 3.19385 52.5 10.2076 52.5 18.8578C52.5 27.5079 59.7762 34.5217 68.75 34.5217C77.7238 34.5217 85 27.5079 85 18.8578C85 10.2076 77.7238 3.19385 68.75 3.19385ZM76.5594 15.0012C76.5703 15.1656 76.5703 15.3369 76.5703 15.5047C76.5703 20.6374 72.5151 26.5499 65.1046 26.5499C62.8195 26.5499 60.7012 25.91 58.9166 24.8086C59.243 24.8436 59.555 24.8576 59.8887 24.8576C61.7748 24.8576 63.5087 24.2422 64.8906 23.2003C63.1205 23.1653 61.6334 22.0465 61.1256 20.5081C61.7458 20.5955 62.3044 20.5955 62.9428 20.4381C62.0314 20.2596 61.2122 19.7825 60.6243 19.0878C60.0365 18.393 59.7163 17.5236 59.7182 16.627V16.5781C60.2514 16.8683 60.8789 17.0466 61.5354 17.0711C60.9835 16.7165 60.5309 16.2362 60.2177 15.6726C59.9045 15.1091 59.7404 14.4797 59.74 13.8404C59.74 13.1167 59.9358 12.4558 60.2877 11.8824C61.2993 13.0829 62.5617 14.0647 63.9928 14.764C65.4238 15.4634 66.9915 15.8647 68.594 15.9418C68.0246 13.302 70.0703 11.1657 72.5296 11.1657C73.6903 11.1657 74.7349 11.6342 75.4713 12.3894C76.3817 12.2251 77.2522 11.8964 78.0285 11.4559C77.7274 12.3544 77.0963 13.1132 76.2584 13.5922C77.0709 13.5083 77.8544 13.2915 78.5798 12.9873C78.0321 13.7635 77.3465 14.4523 76.5594 15.0012Z" fill="#3FA0BB"/>
<rect x="100" width="37.5" height="37.3195" rx="18.6597" fill="white"/>
<rect x="150" width="37.5" height="37.3195" rx="18.6597" fill="white"/>
<path d="M118.75 3.19385C109.775 3.19385 102.5 10.2067 102.5 18.8578C102.5 27.5088 109.775 34.5217 118.75 34.5217C127.725 34.5217 135 27.5088 135 18.8578C135 10.2067 127.725 3.19385 118.75 3.19385ZM114.772 25.3501H111.482V15.1425H114.772V25.3501ZM113.107 13.8894C112.067 13.8894 111.395 13.1796 111.395 12.3018C111.395 11.406 112.087 10.7174 113.149 10.7174C114.21 10.7174 114.86 11.406 114.88 12.3018C114.88 13.1796 114.21 13.8894 113.107 13.8894ZM126.79 25.3501H123.5V19.6932C123.5 18.3764 123.022 17.4823 121.832 17.4823C120.923 17.4823 120.383 18.0876 120.145 18.6701C120.057 18.8773 120.035 19.171 120.035 19.4631V25.3485H116.742V18.3976C116.742 17.1233 116.7 16.0578 116.656 15.1408H119.515L119.666 16.5588H119.732C120.165 15.893 121.226 14.9108 123.002 14.9108C125.167 14.9108 126.79 16.3091 126.79 19.3146V25.3501Z" fill="#3FA0BB"/>
<path d="M183.24 13.9017C183.223 12.7212 182.994 11.5525 182.561 10.4478C182.186 9.51593 181.613 8.66967 180.879 7.96303C180.144 7.25639 179.265 6.70493 178.297 6.34387C177.163 5.9345 175.966 5.71315 174.756 5.68924C173.198 5.62222 172.704 5.60352 168.749 5.60352C164.794 5.60352 164.287 5.60352 162.74 5.68924C161.53 5.71333 160.334 5.93468 159.201 6.34387C158.232 6.70468 157.353 7.25605 156.619 7.96272C155.884 8.66939 155.311 9.51579 154.936 10.4478C154.51 11.5375 154.281 12.6893 154.258 13.8534C154.188 15.3544 154.167 15.8297 154.167 19.6359C154.167 23.4421 154.167 23.9284 154.258 25.4185C154.282 26.5843 154.51 27.7346 154.936 28.8272C155.312 29.7589 155.885 30.605 156.62 31.3113C157.354 32.0177 158.234 32.5688 159.202 32.9296C160.332 33.3554 161.529 33.5926 162.741 33.6309C164.301 33.698 164.795 33.7182 168.75 33.7182C172.706 33.7182 173.212 33.7182 174.759 33.6309C175.969 33.608 177.167 33.3872 178.3 32.9779C179.268 32.6164 180.147 32.0648 180.881 31.3582C181.615 30.6516 182.189 29.8056 182.564 28.874C182.99 27.7829 183.219 26.6327 183.243 25.4652C183.313 23.9658 183.334 23.4904 183.334 19.6827C183.33 15.8765 183.33 15.3933 183.24 13.9017ZM168.739 26.8337C164.602 26.8337 161.251 23.6089 161.251 19.6281C161.251 15.6474 164.602 12.4226 168.739 12.4226C170.725 12.4226 172.629 13.1817 174.034 14.533C175.438 15.8843 176.227 17.7171 176.227 19.6281C176.227 21.5392 175.438 23.3719 174.034 24.7233C172.629 26.0746 170.725 26.8337 168.739 26.8337ZM176.525 13.8362C176.295 13.8364 176.068 13.7931 175.856 13.7088C175.644 13.6244 175.452 13.5006 175.29 13.3446C175.127 13.1885 174.999 13.0032 174.911 12.7993C174.823 12.5953 174.778 12.3767 174.779 12.156C174.779 11.9355 174.824 11.7171 174.912 11.5133C174.999 11.3096 175.128 11.1244 175.29 10.9685C175.452 10.8125 175.644 10.6888 175.856 10.6044C176.068 10.52 176.295 10.4766 176.524 10.4766C176.753 10.4766 176.98 10.52 177.192 10.6044C177.403 10.6888 177.596 10.8125 177.758 10.9685C177.92 11.1244 178.048 11.3096 178.136 11.5133C178.224 11.7171 178.269 11.9355 178.269 12.156C178.269 13.085 177.488 13.8362 176.525 13.8362Z" fill="#3FA0BB"/>
<path d="M168.75 25.6856C172.202 25.6856 175 22.9883 175 19.6611C175 16.3338 172.202 13.6365 168.75 13.6365C165.298 13.6365 162.5 16.3338 162.5 19.6611C162.5 22.9883 165.298 25.6856 168.75 25.6856Z" fill="#3FA0BB"/>
</svg>
