<svg width="56" height="55" viewBox="0 0 56 55" fill="none" xmlns="http://www.w3.org/2000/svg">
<path d="M32.5069 20.2718C32.5069 21.1482 32.247 22.0049 31.7601 22.7336C31.2732 23.4623 30.5811 24.0302 29.7714 24.3656C28.9617 24.701 28.0708 24.7888 27.2112 24.6178C26.3517 24.4468 25.5621 24.0248 24.9424 23.4051C24.3227 22.7854 23.9007 21.9958 23.7297 21.1362C23.5587 20.2767 23.6464 19.3857 23.9818 18.576C24.3172 17.7663 24.8852 17.0743 25.6139 16.5874C26.3426 16.1005 27.1993 15.8406 28.0757 15.8406C29.2509 15.8406 30.378 16.3074 31.209 17.1385C32.04 17.9695 32.5069 19.0965 32.5069 20.2718Z" fill="white"/>
<path d="M27.994 2.46219e-06C22.5529 -0.00229774 17.2333 1.60924 12.7082 4.63073C8.18315 7.65222 4.65585 11.9479 2.57256 16.9744C0.489263 22.0009 -0.0564224 27.5324 1.00452 32.8691C2.06547 38.2058 4.68539 43.1079 8.53285 46.9554C12.3803 50.8028 17.2824 53.4227 22.6191 54.4837C27.9558 55.5446 33.4873 54.9989 38.5138 52.9156C43.5403 50.8324 47.836 47.3051 50.8575 42.78C53.879 38.2549 55.4905 32.9353 55.4882 27.4942C55.4897 23.8832 54.7796 20.3073 53.3985 16.9708C52.0173 13.6344 49.9921 10.6028 47.4387 8.04946C44.8854 5.49608 41.8538 3.47093 38.5174 2.08976C35.181 0.708592 31.605 -0.00152601 27.994 2.46219e-06ZM27.994 12.5841H28.1103C30.3474 12.6325 32.4774 13.5514 34.0476 15.1455C35.6178 16.7396 36.5045 18.8832 36.5191 21.1208C36.5191 26.7964 30.4597 32.5301 28.0522 34.5887L27.5288 34.1235C24.8655 31.7974 19.6085 26.4242 19.6085 21.1324C19.6201 18.8959 20.5042 16.7523 22.0726 15.1579C23.6409 13.5634 25.7697 12.6441 28.0057 12.5957L27.994 12.5841ZM28.1685 42.5788C23.0976 42.5788 17.9686 41.125 17.9686 38.3453C17.9686 36.3914 20.4924 35.0888 23.7838 34.4957C24.4235 35.1237 25.0167 35.6587 25.54 36.1472C22.0509 36.5426 19.8993 37.6708 19.8993 38.3453C19.8993 39.0199 23.0511 40.6714 28.2034 40.6714C33.3556 40.6714 36.5075 39.1594 36.5075 38.3453C36.5075 37.5312 34.3326 36.5077 30.6923 36.1356C31.2273 35.6587 31.8553 35.1005 32.4601 34.4608C35.8212 35.0423 38.4497 36.3449 38.4497 38.3453C38.4497 41.125 33.3091 42.5788 28.2382 42.5788H28.1685Z" fill="white"/>
</svg>
