<svg width="55" height="55" viewBox="0 0 55 55" fill="none" xmlns="http://www.w3.org/2000/svg">
<path d="M27.494 2.45999e-06C22.0534 -0.00229802 16.7343 1.60893 12.2094 4.62991C7.68461 7.65089 4.15731 11.9459 2.07367 16.9717C-0.0099604 21.9976 -0.556331 27.5284 0.503673 32.8648C1.56368 38.2012 4.18244 43.1033 8.02873 46.9512C11.875 50.7992 16.7761 53.42 22.112 54.4823C27.4479 55.5445 32.979 55.0005 38.0057 52.919C43.0324 50.8375 47.3289 47.312 50.3518 42.7884C53.3747 38.2649 54.9882 32.9464 54.9882 27.5058C54.9897 23.8943 54.2797 20.3178 52.8987 16.9807C51.5176 13.6436 49.4927 10.6113 46.9395 8.05697C44.3862 5.50267 41.3548 3.47643 38.0183 2.09399C34.6818 0.711547 31.1056 2.13686e-06 27.494 2.45999e-06ZM38.6708 39.8107V41.7065C38.6724 41.9574 38.6241 42.2061 38.5288 42.4382C38.4335 42.6704 38.293 42.8812 38.1156 43.0587C37.9382 43.2361 37.7273 43.3765 37.4952 43.4718C37.2631 43.5671 37.0143 43.6154 36.7634 43.6139H17.7478C17.2479 43.6154 16.7527 43.5181 16.2906 43.3275C15.8285 43.1369 15.4086 42.8569 15.0551 42.5034C14.7017 42.1499 14.4216 41.7301 14.231 41.268C14.0404 40.8058 13.9431 40.3106 13.9446 39.8107V15.8755C13.9446 14.8668 14.3453 13.8995 15.0586 13.1862C15.7718 12.473 16.7391 12.0723 17.7478 12.0723H36.7634C37.0143 12.0708 37.2631 12.1191 37.4952 12.2144C37.7273 12.3097 37.9382 12.4501 38.1156 12.6275C38.293 12.805 38.4335 13.0158 38.5288 13.248C38.6241 13.4801 38.6724 13.7288 38.6708 13.9797V39.8107ZM42.4739 15.8755V41.7065C42.4755 41.9574 42.4272 42.2061 42.3319 42.4382C42.2366 42.6704 42.0961 42.8812 41.9187 43.0587C41.7413 43.2361 41.5304 43.3765 41.2983 43.4718C41.0662 43.5671 40.8174 43.6154 40.5665 43.6139H40.0548C40.3919 43.0349 40.5686 42.3765 40.5665 41.7065V13.9797C40.5686 13.3097 40.3919 12.6513 40.0548 12.0723H40.5665C40.8174 12.0708 41.0662 12.1191 41.2983 12.2144C41.5304 12.3097 41.7413 12.4501 41.9187 12.6275C42.0961 12.805 42.2366 13.0158 42.3319 13.248C42.4272 13.4801 42.4755 13.7288 42.4739 13.9797V15.8755Z" fill="white"/>
</svg>
