<svg width="55" height="55" viewBox="0 0 55 55" fill="none" xmlns="http://www.w3.org/2000/svg">
<path d="M27.5057 2.45484e-06C22.0646 -0.0022958 16.745 1.6092 12.2199 4.6307C7.69485 7.65219 4.16757 11.9479 2.08428 16.9744C0.000986863 22.0009 -0.544705 27.5324 0.516242 32.869C1.57719 38.2057 4.1971 43.1079 8.04455 46.9553C11.892 50.8028 16.7942 53.4227 22.1308 54.4836C27.4675 55.5446 32.999 54.9989 38.0255 52.9156C43.052 50.8323 47.3477 47.305 50.3692 42.7799C53.3907 38.2549 55.0022 32.9353 54.9999 27.4942C54.9999 20.2022 52.1032 13.209 46.947 8.05285C41.7909 2.89669 34.7976 2.45484e-06 27.5057 2.45484e-06ZM27.5057 9.65666L43.7745 19.813H11.237L27.5057 9.65666ZM43.9836 36.012C43.9806 36.7928 43.6682 37.5406 43.115 38.0916C42.5618 38.6426 41.8129 38.952 41.032 38.952H13.9678C13.187 38.952 12.438 38.6426 11.8848 38.0916C11.3316 37.5406 11.0193 36.7928 11.0162 36.012V20.4521C11.0042 20.2858 11.0042 20.1188 11.0162 19.9524L26.5645 29.644H26.6342L26.9712 29.7718C27.0988 29.7832 27.2271 29.7832 27.3547 29.7718C27.4822 29.7832 27.6106 29.7832 27.7382 29.7718L28.0751 29.644H28.1448H28.203L43.7513 19.9524C43.7632 20.1188 43.7632 20.2858 43.7513 20.4521L43.9836 36.012Z" fill="white"/>
</svg>
