<svg width="15" height="16" viewBox="0 0 15 16" fill="none" xmlns="http://www.w3.org/2000/svg">
<path d="M14.0417 15.5L8.5625 10.0208L9.52083 9.0625L15 14.5417L14.0417 15.5ZM2.16667 14.5417C1.43056 13.7361 0.885417 12.8437 0.53125 11.8646C0.177083 10.8854 0 9.88889 0 8.875C0 7.79167 0.201389 6.73611 0.604167 5.70833C1.00694 4.68056 1.61806 3.75694 2.4375 2.9375C3.25694 2.11806 4.18403 1.50694 5.21875 1.10417C6.25347 0.701389 7.3125 0.5 8.39583 0.5C9.40972 0.5 10.4062 0.677083 11.3854 1.03125C12.3646 1.38542 13.25 1.93056 14.0417 2.66667L2.16667 14.5417ZM2.22917 12.6875L3.66667 11.2292C3.44444 10.9236 3.22222 10.5938 3 10.2396C2.77778 9.88542 2.57292 9.51042 2.38542 9.11458C2.19792 8.71875 2.04167 8.30903 1.91667 7.88542C1.79167 7.46181 1.70833 7.02778 1.66667 6.58333C1.29167 7.61111 1.16319 8.65972 1.28125 9.72917C1.39931 10.7986 1.71528 11.7847 2.22917 12.6875ZM4.66667 10.2917L9.79167 5.125C9.15278 4.625 8.50347 4.23264 7.84375 3.94792C7.18403 3.66319 6.55555 3.47569 5.95833 3.38542C5.36111 3.29514 4.82986 3.29514 4.36458 3.38542C3.89931 3.47569 3.54167 3.64583 3.29167 3.89583C3.04167 4.14583 2.88194 4.50347 2.8125 4.96875C2.74306 5.43403 2.76042 5.95486 2.86458 6.53125C2.96875 7.10764 3.17014 7.71875 3.46875 8.36458C3.76736 9.01042 4.16667 9.65278 4.66667 10.2917ZM10.7292 4.16667L12.2292 2.72917C11.3125 2.14583 10.316 1.80556 9.23958 1.70833C8.16319 1.61111 7.11111 1.76389 6.08333 2.16667C6.5 2.20833 6.91319 2.29167 7.32292 2.41667C7.73264 2.54167 8.13542 2.69097 8.53125 2.86458C8.92708 3.03819 9.30903 3.23611 9.67708 3.45833C10.0451 3.68056 10.3958 3.91667 10.7292 4.16667Z" fill="#9A9A9A"/>
</svg>
